<svg id="_0" data-name="0" xmlns="http://www.w3.org/2000/svg" viewBox="0 0 495.03 596.52"><defs><style>.cls-1,.cls-2{fill:none;stroke-linecap:round;stroke-linejoin:round;stroke-width:0.71px;}.cls-1{stroke:red;}.cls-2{stroke:blue;}.cls-3{fill:#2c2b7d;}</style></defs><g id="LWPOLYLINE"><path class="cls-1" d="M565.13,163l-.69-.3" transform="translate(-70.46 -162.37)"/></g><g id="ARC"><path class="cls-2" d="M70.85,467.78l0,1.6" transform="translate(-70.46 -162.37)"/></g><g id="LWPOLYLINE-2" data-name="LWPOLYLINE"><path class="cls-1" d="M563,758l-.67.58" transform="translate(-70.46 -162.37)"/></g><path class="cls-3" d="M174.16,500.45a450.08,450.08,0,0,0,12.37-46.52A466.16,466.16,0,0,0,194,406.5a470.51,470.51,0,0,0,2.52-48.36A466.14,466.14,0,0,0,194,310a457.86,457.86,0,0,0-7.39-47.43q-.62-3-1.28-5.89c-.14-.63-1.11-.37-1,.26a454.52,454.52,0,0,1,8,47.5,465.52,465.52,0,0,1,3,48.09,470.84,470.84,0,0,1-1.91,47.94,462,462,0,0,1-6.85,47.71A449.32,449.32,0,0,1,175,494.46c-.59,1.91-1.2,3.82-1.81,5.72-.2.62.76.88,1,.27Z" transform="translate(-70.46 -162.37)"/><path class="cls-3" d="M183.78,259.36Q199,255.69,214,251.08t29.74-10.16c8.81-3.32,17.59-6.81,26.13-10.81a139.05,139.05,0,0,0,22.41-12.86,84.17,84.17,0,0,0,18.4-17.79c.66-.89,1.3-1.8,1.93-2.71.36-.54-.51-1-.87-.51a79.94,79.94,0,0,1-17.93,18.64A129.77,129.77,0,0,1,272,228c-8.29,4-16.86,7.49-25.46,10.79q-14.51,5.56-29.33,10.24t-29.94,8.44l-3.7.9c-.63.15-.36,1.12.26,1Z" transform="translate(-70.46 -162.37)"/><path class="cls-3" d="M185.91,257.9a247.83,247.83,0,0,1,31,7.3A254.33,254.33,0,0,1,247,276.46a264.12,264.12,0,0,1,28.59,15A267.77,267.77,0,0,1,302.48,310,272.84,272.84,0,0,1,327,331.64c1,1,1.94,1.95,2.9,2.93.45.46,1.15-.24.7-.71a272.46,272.46,0,0,0-51.06-41.19,265.78,265.78,0,0,0-28.6-15.51,257.94,257.94,0,0,0-29.85-11.7,249.13,249.13,0,0,0-31-7.84c-1.3-.24-2.6-.47-3.91-.69-.63-.1-.9.86-.26,1Z" transform="translate(-70.46 -162.37)"/><path class="cls-3" d="M324.23,333.78a356.93,356.93,0,0,1,8.56,49.76c1.74,16.59,2.57,33.27,3,49.95.41,17.08.66,34.17.63,51.26s-.41,34.08-1.46,51.09a340.88,340.88,0,0,1-6.49,50.73q-.66,3.07-1.4,6.14a.5.5,0,0,0,1,.26,313.91,313.91,0,0,0,7.44-50c1.29-17.15,1.78-34.35,1.91-51.54s-.14-34.43-.46-51.64c-.32-16.94-1-33.87-2.57-50.75a375.11,375.11,0,0,0-7.68-49.43q-.69-3-1.46-6.06c-.15-.63-1.12-.36-1,.26Z" transform="translate(-70.46 -162.37)"/><path class="cls-3" d="M171.75,493.34c13.82,6.22,27.52,12.68,41,19.57s27,14.26,40,22.16a456.91,456.91,0,0,1,37.92,25.53,362.45,362.45,0,0,1,34.95,29.81,307,307,0,0,1,30.8,34.76q1.71,2.26,3.37,4.56c.38.51,1.25,0,.87-.51a305.6,305.6,0,0,0-30.17-35.39A353.77,353.77,0,0,0,296,563.45a444.14,444.14,0,0,0-37.54-26c-13-8.11-26.42-15.63-40-22.71s-27.22-13.61-41.07-19.92l-5.11-2.31c-.58-.26-1.09.6-.51.86Z" transform="translate(-70.46 -162.37)"/><path class="cls-3" d="M236.45,258.74A119.25,119.25,0,0,0,259,252.81,148.14,148.14,0,0,0,280.12,243a194.48,194.48,0,0,0,20-13c6.53-4.82,12.79-10,18.86-15.35s12-11,17.7-16.8c.72-.73,1.44-1.45,2.15-2.18a.5.5,0,0,0-.71-.7c-5.67,5.78-11.48,11.42-17.49,16.86S308.41,222.43,302,227.32a201.91,201.91,0,0,1-19.76,13.3,150.44,150.44,0,0,1-21,10.29,120.26,120.26,0,0,1-22.09,6.37c-1,.18-1.92.34-2.89.49-.63.1-.36,1.06.27,1Z" transform="translate(-70.46 -162.37)"/><path class="cls-3" d="M241.22,257.83q18,4.83,35.56,11.23t34.6,14.37Q328,291.2,344,300.35t31.1,19.59q15.58,10.74,30.23,22.76,1.8,1.49,3.59,3c.49.41,1.2-.3.71-.71q-14.43-12.09-29.83-23-15.18-10.72-31.23-20.16-15.9-9.35-32.55-17.35-16.83-8.08-34.3-14.69t-35.75-11.73l-4.43-1.21a.5.5,0,0,0-.27,1Z" transform="translate(-70.46 -162.37)"/><path class="cls-3" d="M341.68,348.37c2.15,15.52,6,30.75,8.71,46.17q4.07,22.86,5.93,46,1.86,23,1.54,46.15t-2.78,46.09q-2.46,23-7.12,45.63c-.39,1.9-.8,3.81-1.21,5.71-.14.62.83.89,1,.26q4.91-22.47,7.66-45.33,2.79-23.16,3.38-46.5t-1-46.4q-1.59-23.08-5.36-45.95c-2.56-15.48-6.31-30.74-8.84-46.22-.33-2-.63-3.95-.9-5.92-.09-.64-1.05-.37-1,.26Z" transform="translate(-70.46 -162.37)"/><path class="cls-3" d="M364.58,346.35q8.28,27.34,13.84,55.4,5.61,28.32,8.48,57.1,2.91,29.2,3,58.61t-2.66,59q-2.73,29.22-8.28,58.06-.69,3.54-1.41,7.06c-.13.63.83.89,1,.26q5.83-28.43,8.93-57.34c2.11-19.73,3.25-39.57,3.44-59.41s-.6-39.58-2.33-59.29Q386,437.24,380.82,409t-13.27-56.15c-.65-2.26-1.32-4.51-2-6.77a.5.5,0,0,0-1,.27Z" transform="translate(-70.46 -162.37)"/><path class="cls-3" d="M399.48,344.42c1.68,19.86,3.37,39.72,4.76,59.6s2.51,39.6,3.06,59.43.55,39.78-.31,59.65c-.79,18.3-1.91,36.79-5.16,54.84-2.84,15.71-7.62,31.57-17.22,44.55-1.19,1.61-2.46,3.16-3.79,4.66-.43.48.28,1.19.71.71,10.55-11.91,16.36-27.07,19.8-42.41,3.88-17.3,5.17-35.18,6.18-52.84,1.15-20,1.39-40.13,1-60.19s-1.38-40.2-2.71-60.27-3-40.13-4.68-60.18c-.22-2.52-.43-5-.64-7.55-.06-.64-1.06-.64-1,0Z" transform="translate(-70.46 -162.37)"/><path class="cls-3" d="M259.3,257.71a96.64,96.64,0,0,0,32.3-5,103.6,103.6,0,0,0,29.47-15.51,105.87,105.87,0,0,0,14.14-12.79c.44-.47-.27-1.18-.71-.71a104.56,104.56,0,0,1-26.25,20.62,100.37,100.37,0,0,1-30.77,11,93.91,93.91,0,0,1-18.18,1.45.5.5,0,0,0,0,1Z" transform="translate(-70.46 -162.37)"/><path class="cls-3" d="M205.47,262.78c10.81.51,21.64,1,32.46.63a150.24,150.24,0,0,0,31.68-4,95.41,95.41,0,0,0,24.58-9.75A82.65,82.65,0,0,0,313.92,234a69.15,69.15,0,0,0,13.53-21.45c.4-1,.76-2,1.11-3.06.2-.61-.76-.87-1-.26A67,67,0,0,1,315,231.33a80.19,80.19,0,0,1-19,16.11,92.1,92.1,0,0,1-23.23,10.1,139.62,139.62,0,0,1-31.42,4.74c-10.62.5-21.26.16-31.87-.31l-4-.19c-.64,0-.64,1,0,1Z" transform="translate(-70.46 -162.37)"/><path class="cls-3" d="M239,257a127.56,127.56,0,0,0,22.21-2.39,131.47,131.47,0,0,0,21.66-6.26,136,136,0,0,0,20.39-9.89,110.63,110.63,0,0,0,18-12.91c5-4.54,9.45-10.18,10.75-17,.15-.82.26-1.65.33-2.48.05-.64-.95-.64-1,0-.57,6.89-4.6,12.75-9.43,17.45a75.47,75.47,0,0,1-8.05,6.66q-4.5,3.32-9.26,6.25a133.6,133.6,0,0,1-20,10.12,131.06,131.06,0,0,1-21.05,6.5,125.83,125.83,0,0,1-21.79,2.82c-.92,0-1.84.06-2.75.08a.5.5,0,0,0,0,1Z" transform="translate(-70.46 -162.37)"/><path class="cls-3" d="M268.44,263.32q10.24-4.69,20-10.34t19.21-12.32c6-4.23,11.83-8.7,17.37-13.5a85.25,85.25,0,0,0,13.45-14.32,45,45,0,0,0,8-17.8c.15-.79.27-1.6.37-2.4.08-.64-.92-.63-1,0-1.69,13.27-10.54,24-20.2,32.65a207.89,207.89,0,0,1-16.91,13.39q-9.09,6.54-18.74,12.24a241.24,241.24,0,0,1-22.09,11.54c-.58.27-.08,1.13.51.86Z" transform="translate(-70.46 -162.37)"/><path class="cls-3" d="M341.22,194.64q1.86,18.65,2.62,37.39t.39,37.49q-.19,10.51-.76,21c0,.65,1,.64,1,0q1-18.72.87-37.48T344,215.6q-.69-10.5-1.74-21c-.07-.63-1.07-.64-1,0Z" transform="translate(-70.46 -162.37)"/><path class="cls-3" d="M236.51,261.82c10.84,5.36,21.64,10.78,32.28,16.52S289.87,290.16,300,296.8a275.06,275.06,0,0,1,27.27,20.26,217.65,217.65,0,0,1,23.25,22.8,180.73,180.73,0,0,1,19.3,26.48c.71,1.19,1.4,2.4,2.08,3.6a.5.5,0,0,0,.86-.5,179.07,179.07,0,0,0-18.79-27.09A215,215,0,0,0,331,319a268.85,268.85,0,0,0-26.54-20.39c-10.07-6.84-20.54-13.08-31.2-18.95S251.9,268.34,241.07,263L237,261c-.57-.28-1.08.58-.5.86Z" transform="translate(-70.46 -162.37)"/><path class="cls-3" d="M262.15,260.28q14,8,27.92,16.22T317.52,293a279.53,279.53,0,0,1,24.71,16.44,109.84,109.84,0,0,1,20,19.4,75.58,75.58,0,0,1,12.72,23.7c.33,1.06.63,2.13.91,3.21a.5.5,0,0,0,1-.27,74,74,0,0,0-11.62-24.31,103.83,103.83,0,0,0-19-19.91,227.77,227.77,0,0,0-24.45-16.87q-13.67-8.44-27.5-16.6-14-8.31-28.12-16.41l-3.42-2a.5.5,0,0,0-.5.87Z" transform="translate(-70.46 -162.37)"/><path class="cls-3" d="M349.8,352.08a279.13,279.13,0,0,1,16.47,45.57,363.37,363.37,0,0,1,9.4,48.06A491.59,491.59,0,0,1,379.42,496c.47,17.59.18,35.19-.52,52.77s-1.79,35.17-2.94,52.74q-.21,3.3-.43,6.62c0,.64,1,.64,1,0,1.16-17.74,2.32-35.48,3.11-53.24s1.22-35.52.91-53.28c-.3-17-1.28-33.9-3.25-50.74a376,376,0,0,0-8.65-48,288.13,288.13,0,0,0-15.49-45.75q-1.21-2.77-2.49-5.5c-.27-.58-1.14-.07-.87.51Z" transform="translate(-70.46 -162.37)"/><path class="cls-3" d="M381.46,348.35c9,15.64,15,32.78,18.82,50.35,4,18,5.83,36.41,6.72,54.8.95,19.72.92,39.5.54,59.24q-.59,31.46-2.9,62.85c-1.48,20.1-3.06,40.44-8.43,59.95q-1,3.59-2.15,7.13c-.21.61.76.87,1,.26,6.26-19,8.36-39,10-58.88q2.56-31.8,3.38-63.7c.52-20.22.64-40.48-.11-60.7-.68-18.43-2.23-36.9-5.73-55-3.41-17.6-8.73-34.93-17-50.89-1-2-2.11-3.94-3.22-5.88a.5.5,0,0,0-.86.5Z" transform="translate(-70.46 -162.37)"/><path class="cls-3" d="M319.71,326c1.93,16,3.69,32.1,5.07,48.19s2.39,32.33,2.8,48.53.24,32.36-.77,48.51A407.33,407.33,0,0,1,321.12,519a321.42,321.42,0,0,1-11.86,46q-1,2.82-2,5.62c-.22.61.74.87,1,.27a316,316,0,0,0,12.75-46,392.77,392.77,0,0,0,6.36-47.21c1.23-16.11,1.6-32.28,1.35-48.43s-1.13-32.53-2.42-48.75-3-32.36-4.87-48.5c-.24-2-.47-4-.71-6-.08-.63-1.08-.64-1,0Z" transform="translate(-70.46 -162.37)"/><path class="cls-3" d="M368.41,510.34q1.13,13.35,1.48,26.74t-.05,26.64q-.42,13.39-1.59,26.73T365.13,617q-1.94,13.22-4.64,26.3c-.22,1.07-.44,2.15-.67,3.22-.14.62.83.89,1,.26q2.79-13,4.83-26.26T368.92,594q1.29-13.32,1.79-26.71t.26-26.77q-.25-13.46-1.29-26.88c-.08-1.1-.17-2.19-.27-3.29-.05-.63-1.05-.64-1,0Z" transform="translate(-70.46 -162.37)"/><path class="cls-3" d="M386.92,399.34a311,311,0,0,1,7.68,30.37,312.29,312.29,0,0,1,4.58,31.2q.84,8.82,1.17,17.69c0,.64,1,.64,1,0a313.65,313.65,0,0,0-2.78-31.37,309.29,309.29,0,0,0-6-31.06q-2.12-8.61-4.72-17.09c-.19-.62-1.16-.36-1,.26Z" transform="translate(-70.46 -162.37)"/><path class="cls-3" d="M343.28,405.84q3,24.44,4.84,49t2.68,48.94q.45,13.8.57,27.61a.5.5,0,0,0,1,0q-.21-24.63-1.49-49.24t-3.62-48.87q-1.32-13.72-3-27.43c-.08-.63-1.08-.64-1,0Z" transform="translate(-70.46 -162.37)"/></svg>