<svg id="Layer_1" data-name="Layer 1" xmlns="http://www.w3.org/2000/svg" viewBox="0 0 579.42 311.65"><defs><style>.cls-1{fill:#fff;}.cls-1,.cls-2{stroke:#231f20;stroke-miterlimit:10;}.cls-2{fill:none;}.cls-3{fill:#231f20;}</style></defs><path class="cls-1" d="M-294.23,248.11" transform="translate(-3.57 -217.84)"/><path class="cls-2" d="M155,288" transform="translate(-3.57 -217.84)"/><path class="cls-2" d="M240.53,285.14" transform="translate(-3.57 -217.84)"/><path class="cls-2" d="M236.13,273.92" transform="translate(-3.57 -217.84)"/><path class="cls-2" d="M236.13,273.92" transform="translate(-3.57 -217.84)"/><path class="cls-2" d="M236.13,273.92" transform="translate(-3.57 -217.84)"/><path class="cls-3" d="M249.8,318c-6.08-3.07-12.1-6.26-18-9.67s-11.61-7-17.16-10.88a158.64,158.64,0,0,1-15.83-12.65,132.09,132.09,0,0,1-9.65-9.86l.09-.16c.27-.52-.42-1-.76-.6-.21-.24-.41-.48-.61-.73a4.06,4.06,0,0,1-.76.59c.29.34.57.69.86,1a137.29,137.29,0,0,1-10.06,16.24c-1.22,1.7-2.5,3.36-3.8,5-.21-1.74-.45-3.48-.81-5.2a5.87,5.87,0,0,0-2.22-4,.43.43,0,0,0-.51,0,.42.42,0,0,0-.46.12l0,0a.5.5,0,0,0-.3-.14,8.17,8.17,0,0,0-4.54.48,3.76,3.76,0,0,0-1.5,1.35c-.32.51-.62,1.52-1.38,1.46s-.66.83-.12,1a.48.48,0,0,0,0,.35,32,32,0,0,1,3.13,14.59l-.29.31A138.75,138.75,0,0,1,133.92,331c-1.88,1.07-3.79,2.07-5.71,3a5.73,5.73,0,0,1,.35,1c1.21-.61,2.42-1.23,3.62-1.89a136.35,136.35,0,0,0,16.71-10.79A141.68,141.68,0,0,0,164,309.16c.69-.69,1.35-1.4,2-2.11a.44.44,0,0,0,.38-.38A142.67,142.67,0,0,0,177.11,294,140,140,0,0,0,188.06,277c.21-.38.4-.75.6-1.13q3.69,4.19,7.73,8a152.71,152.71,0,0,0,15.5,12.81c5.51,4,11.24,7.69,17.09,11.14s11.93,6.73,18,9.85c3.49,1.79,7,3.52,10.53,5.24A4.87,4.87,0,0,1,258,322Q253.87,320,249.8,318Zm-84.45-29.29a5.89,5.89,0,0,1,3.9-.63,10,10,0,0,1-5.27,2.42A7.08,7.08,0,0,1,165.35,288.68Zm1.06,16.54a33.09,33.09,0,0,0-3.12-13.69l.08,0A11.13,11.13,0,0,0,170.7,288c1.13.85,1.47,2.36,1.71,3.68q.53,2.8.84,5.63Q170,301.41,166.41,305.22Z" transform="translate(-3.57 -217.84)"/><path class="cls-3" d="M207.54,371.6a72.55,72.55,0,0,1-22.78-.13c-.62-.1-.9.37-.28.47a74.12,74.12,0,0,0,23.31.15C208.39,372,208.15,371.5,207.54,371.6Z" transform="translate(-3.57 -217.84)"/><rect class="cls-2" x="158.59" y="344.22" width="21.63" height="16.35" transform="translate(-49.5 -191.81) rotate(-7.74)"/><path class="cls-2" d="M168,343.05l2.63,17" transform="translate(-3.57 -217.84)"/><path class="cls-2" d="M159.54,353.47l21.28-2.89" transform="translate(-3.57 -217.84)"/><rect class="cls-2" x="201.9" y="339.85" width="21.63" height="16.35" transform="translate(-24.68 -204.03) rotate(-3.54)"/><path class="cls-2" d="M212,338.6l1.38,17.18" transform="translate(-3.57 -217.84)"/><path class="cls-2" d="M202.8,348.38l21.44-1.33" transform="translate(-3.57 -217.84)"/><path class="cls-3" d="M207.26,384.63a.43.43,0,0,0-.39-.23l-2-.06a.36.36,0,0,0-.23-.17.5.5,0,0,0-.62.33,8.23,8.23,0,0,0-.22,2.71.51.51,0,0,0,.49.51c.24,0,.54-.2.51-.48a7.7,7.7,0,0,1,0-1.27,6.07,6.07,0,0,1,.07-.63l2,.06a.47.47,0,0,0,.35-.14h0l0,0a.44.44,0,0,0,.13-.31A.58.58,0,0,0,207.26,384.63Z" transform="translate(-3.57 -217.84)"/><path class="cls-3" d="M326.79,241.27c-1.23-2.76-3.72-4.79-6.32-6.35-.46-.27-.91.41-.45.68a15.37,15.37,0,0,1,5.5,5,12.66,12.66,0,0,1,1.34,7.83c-.47,4.83-2.34,10.38-7.47,12.34s-10.26-2-13.2-5.76a22.56,22.56,0,0,1-4.77-13.8,8.88,8.88,0,0,1,.92-4.44,7.09,7.09,0,0,1,2.84-2.64c2.84-1.52,6.2-1.44,9.35-1.38a.4.4,0,1,0,0-.8c-3.06-.06-6.24-.11-9.07,1.13a7.7,7.7,0,0,0-4.72,5.69,19.43,19.43,0,0,0,.49,8,23.63,23.63,0,0,0,3.29,7.38c2.78,4.16,7.62,8.69,13.25,7.87a10.43,10.43,0,0,0,6.43-3.83,16.18,16.18,0,0,0,3.18-7.63C328,247.5,328.1,244.2,326.79,241.27Z" transform="translate(-3.57 -217.84)"/><path class="cls-3" d="M296.77,232.84a70.16,70.16,0,0,0-16.31-7.41.33.33,0,1,0-.21.62,68.91,68.91,0,0,1,16.14,7.34C296.77,233.62,297.14,233.08,296.77,232.84Z" transform="translate(-3.57 -217.84)"/><path class="cls-3" d="M297.47,247.64a157.76,157.76,0,0,0-19.83-2.59c-.46,0-.48.77,0,.8a156.82,156.82,0,0,1,19.64,2.56C297.71,248.5,297.93,247.73,297.47,247.64Z" transform="translate(-3.57 -217.84)"/><path class="cls-3" d="M300.28,255.71q-8.62,3.55-17.46,6.55c-.44.15-.27.86.17.71q8.92-3,17.63-6.63C301.06,256.16,300.71,255.53,300.28,255.71Z" transform="translate(-3.57 -217.84)"/><path class="cls-3" d="M306.33,264.2a57.46,57.46,0,0,0-3.14,14.57c0,.51.8.54.84,0a57,57,0,0,1,3.1-14.35C307.31,264,306.5,263.71,306.33,264.2Z" transform="translate(-3.57 -217.84)"/><path class="cls-3" d="M332.37,278.35a28.7,28.7,0,0,1-5.21-6.28c-1.57-2.44-3-4.94-4.51-7.42-.27-.45-1-.07-.74.38,1.52,2.53,3,5.09,4.61,7.57a28.71,28.71,0,0,0,5.24,6.3C332.16,279.24,332.78,278.7,332.37,278.35Z" transform="translate(-3.57 -217.84)"/><path class="cls-3" d="M341.82,257.61a87.62,87.62,0,0,0-8.61-4.18c-.49-.2-.73.57-.24.77a88,88,0,0,1,8.4,4.08C341.84,258.54,342.29,257.87,341.82,257.61Z" transform="translate(-3.57 -217.84)"/><path class="cls-3" d="M344.2,241.49a36.77,36.77,0,0,1-9.9,1.47.4.4,0,1,0,0,.8,37.61,37.61,0,0,0,10.13-1.49A.4.4,0,1,0,344.2,241.49Z" transform="translate(-3.57 -217.84)"/><path class="cls-3" d="M338.88,224.8a43.14,43.14,0,0,1-3.73,5.22c-.7.83-1.43,1.63-2.19,2.41-.54.55-1.61,1.87-2.55,1.45-.49-.22-.94.46-.45.68a2.56,2.56,0,0,0,2.75-.73,28.63,28.63,0,0,0,2.52-2.65,43.61,43.61,0,0,0,4.37-6C339.87,224.78,339.15,224.35,338.88,224.8Z" transform="translate(-3.57 -217.84)"/><path class="cls-3" d="M324.93,218q-2.74,5.31-5.17,10.77c-.21.47.6.71.81.24q2.39-5.36,5.08-10.58C325.88,218,325.17,217.58,324.93,218Z" transform="translate(-3.57 -217.84)"/><path class="cls-3" d="M304.92,219c-.36-.39-1,.16-.61.55a13.85,13.85,0,0,1,3.66,8.08c0,.51.89.54.84,0A14.72,14.72,0,0,0,304.92,219Z" transform="translate(-3.57 -217.84)"/><path class="cls-3" d="M247.75,528.49a.5.5,0,0,0,0,1A.5.5,0,0,0,247.75,528.49Z" transform="translate(-3.57 -217.84)"/><path class="cls-3" d="M248.68,254.66a6.08,6.08,0,0,0-3.84-3.44,5.21,5.21,0,0,0-.8-3.54,5,5,0,0,0-4-2.48,43.22,43.22,0,0,0-6.53.4c-2,.14-4.15.59-4.95,2.44a6.09,6.09,0,0,0-.65-.58,9.17,9.17,0,0,0-5.9-1.4c-2,.11-4.3.39-5.94,1.52a4,4,0,0,0-1,1,8.35,8.35,0,0,0-.84-1.59c-.87-1.22-2.41-2.85-4.14-2.8a20.27,20.27,0,0,0-3.08.54,10.52,10.52,0,0,0-2.66.75,6.16,6.16,0,0,0-2.67,3.07,4.73,4.73,0,0,0-1.92-.78,9.82,9.82,0,0,0-3.41.28,6.75,6.75,0,0,0-2.56.94,4.2,4.2,0,0,0-1.61,2.34,7.66,7.66,0,0,0,.78,5.85c1.06,1.82,2.93,2.69,5,3.24a8,8,0,0,0,3.84.31,7.83,7.83,0,0,0,1.5-.51,4.42,4.42,0,0,0,.47.95,2.26,2.26,0,0,0,.87.82,1.65,1.65,0,0,0-.08.34,2.59,2.59,0,0,0,.43,1.74,4.65,4.65,0,0,0,3.1,2,6.33,6.33,0,0,0,4.08-.7,4.27,4.27,0,0,0,.71-.49,3.75,3.75,0,0,0,2,2.1,10.85,10.85,0,0,0,4.4,1.15,4.19,4.19,0,0,0,3.35-1.44,3,3,0,0,0,.47-.88,6.12,6.12,0,0,0,.37.57,8.32,8.32,0,0,0,2.34,2.07,9.6,9.6,0,0,0,2.9,1.35,13,13,0,0,0,3.3.31,3.52,3.52,0,0,0,2.55-.86,9.51,9.51,0,0,0,1.76-2.3,6.55,6.55,0,0,0,.79-2.83l.11.11a5.4,5.4,0,0,0,2.58,1,10,10,0,0,0,6.26-.43,5.08,5.08,0,0,0,2.7-4.2C249,258.68,249.4,256.58,248.68,254.66Zm-.8,4.35a12.7,12.7,0,0,1-.55,3.05c-.78,2-3.22,2.61-5.36,2.49a9.15,9.15,0,0,1-3.52-.72,5,5,0,0,1-1.84-2.18l0,0a2.29,2.29,0,0,0-.1-.23c-.32-.57-1.29-.13-1,.45a4.86,4.86,0,0,1-.25,4.82,7.11,7.11,0,0,1-1.57,2,3.71,3.71,0,0,1-2.59.47,9.06,9.06,0,0,1-5.07-1.74,8.34,8.34,0,0,1-3-4.18s0-.06-.06-.09-.08-.26-.13-.38c-.25-.61-1.22-.16-1,.44a3,3,0,0,1-.25,3.1,3.27,3.27,0,0,1-2.57.88,10.59,10.59,0,0,1-3.41-.92,2.76,2.76,0,0,1-1.91-2.36.42.42,0,0,0,0-.12,1.61,1.61,0,0,0-.15-1.32c-.32-.58-1.29-.14-1,.44.46.82-.57,1.48-1.25,1.8a5.2,5.2,0,0,1-2.81.48,3.79,3.79,0,0,1-2.18-1,2.49,2.49,0,0,1-.66-1.05,1.54,1.54,0,0,1,0-.64c0-.07,0-.1,0-.11h0s0,.11,0,.1a1.84,1.84,0,0,0,.47-.07.5.5,0,0,0-.08-1,1.39,1.39,0,0,1-1.31-.61,2.35,2.35,0,0,1-.49-1.13,1.5,1.5,0,0,0,.38-.57v0a2.72,2.72,0,0,1,1.16-.38,2.69,2.69,0,0,1,1.66.71c.53.42,1.34-.23.82-.66a3.8,3.8,0,0,0-2.62-1,3,3,0,0,0-2.29,1.21.82.82,0,0,0-.1.24,6.4,6.4,0,0,1-1.17.52,4,4,0,0,1-1.79.26,13.41,13.41,0,0,1-3.58-.88,5.51,5.51,0,0,1-3.58-4.28c-.4-1.93-.14-4.44,2.07-5.3a12.25,12.25,0,0,1,3.07-.64,4,4,0,0,1,3,.8v0c-.2.62.83.95,1,.33,0-.07.05-.14.07-.22a.36.36,0,0,0,.12-.32,5.39,5.39,0,0,1,2.43-3,9.49,9.49,0,0,1,2.18-.59c.85-.17,1.71-.36,2.57-.5,1.55-.24,2.93,1.25,3.68,2.36a7.11,7.11,0,0,1,1.06,2.53,3,3,0,0,0,.21,1.61.56.56,0,0,0,1-.19,8,8,0,0,0-.15-1.47,3.52,3.52,0,0,1,2-2.15,13.83,13.83,0,0,1,5.2-.91,7.51,7.51,0,0,1,4.57,1.26c1.4,1,1.71,2.62,2,4.16.11.64,1.18.43,1.07-.2a8.8,8.8,0,0,0-1.22-3.51.51.51,0,0,0,.44-.31c.73-1.81,3.28-1.78,5-1.92,1.18-.09,2.36-.23,3.54-.3a7.4,7.4,0,0,1,3,.24,4.58,4.58,0,0,1,2.63,4.26c0,.07,0,.14,0,.21a.5.5,0,0,0-.32.89c-.75,1.24-2.55,1.92-4,2.12-.69.09-.46,1.07.23,1a7,7,0,0,0,4.69-2.44c.06-.09.1-.19.16-.29a4.88,4.88,0,0,1,3.36,3.55A10.31,10.31,0,0,1,247.88,259Z" transform="translate(-3.57 -217.84)"/><path class="cls-3" d="M103.86,266c-1-1.14-3-1.78-5.41-2.07A2.64,2.64,0,0,0,97,261.49a9.07,9.07,0,0,0-5.5-1.39c-2.86.07-5.74.56-8.55.85-2.57.28-5.39.78-6.25,2.15a8.1,8.1,0,0,0-.92-.34,21.24,21.24,0,0,0-7.9-.47,26.2,26.2,0,0,0-7.66,1.59,4.74,4.74,0,0,0-1.24.8,6.22,6.22,0,0,0-1.28-1A9.93,9.93,0,0,0,52,262c-1.34.11-2.71.43-4,.66a22.08,22.08,0,0,0-3.41.76,6.05,6.05,0,0,0-3.19,2.39,10.44,10.44,0,0,0-2.61-.39,24.16,24.16,0,0,0-4.45.5,13.94,13.94,0,0,0-3.27.88,3.35,3.35,0,0,0-1.87,1.79c-.53,1.38.11,2.9,1.63,4s4.15,1.63,7,1.83a19.63,19.63,0,0,0,5.08-.12,17,17,0,0,0,1.92-.49,3.43,3.43,0,0,0,.72.62,3.36,3.36,0,0,0,1.23.5.86.86,0,0,0-.07.25,1.37,1.37,0,0,0,.75,1.18,8.46,8.46,0,0,0,4.29,1.11,14.18,14.18,0,0,0,5.28-.85,6.64,6.64,0,0,0,.89-.4,5,5,0,0,0,2.83,1.29,25.13,25.13,0,0,0,5.92.42,7.91,7.91,0,0,0,4.26-1.3,2.15,2.15,0,0,0,.52-.66c.17.12.34.24.54.36a13,13,0,0,0,3.3,1.25,20.05,20.05,0,0,0,4,.69,31.74,31.74,0,0,0,4.36-.08,7.13,7.13,0,0,0,3.27-.82,8.21,8.21,0,0,0,2.07-1.77,2.94,2.94,0,0,0,.75-2.05l.15.07a11.67,11.67,0,0,0,3.51.5,23.42,23.42,0,0,0,8.19-.86c2.23-.78,3-1.91,3.11-3.17S105,267.26,103.86,266Zm-.6,3.12a5.08,5.08,0,0,1-.4,2.18c-.81,1.5-4,2.12-6.78,2.22a21.58,21.58,0,0,1-4.71-.19,5.92,5.92,0,0,1-2.65-1.37l-.06,0-.15-.15c-.48-.38-1.71,0-1.23.4,1.28,1,1.15,2.28.18,3.4a6.58,6.58,0,0,1-1.86,1.52,8.38,8.38,0,0,1-3.36.56,20.66,20.66,0,0,1-6.85-.77A8.78,8.78,0,0,1,71,274.19l-.09-.05a2.39,2.39,0,0,0-.21-.26c-.39-.4-1.61,0-1.23.4.63.66.93,1.52,0,2.19a6.66,6.66,0,0,1-3.28.85,25.57,25.57,0,0,1-4.59-.34c-1.42-.2-2.59-.73-2.76-1.49,0,0,0-.06,0-.08a.73.73,0,0,0-.33-.92c-.49-.37-1.72,0-1.23.4.69.54-.6,1.09-1.46,1.37a12.12,12.12,0,0,1-3.64.58,7.59,7.59,0,0,1-3-.52,2.17,2.17,0,0,1-1-.68.56.56,0,0,1-.12-.44c0-.05,0-.07,0-.08h0s0,.07,0,.07c.15,0,.46-.07.61-.09.79-.12.59-.72-.22-.69a2.78,2.78,0,0,1-1.78-.31c-.29-.19-.72-.47-.76-.75a1.13,1.13,0,0,0,.44-.43s0,0,0,0a4.82,4.82,0,0,1,3.74,0c.73.25,1.74-.28,1-.53a8.11,8.11,0,0,0-3.56-.5,5.23,5.23,0,0,0-2.88,1,.5.5,0,0,0-.1.17,10.52,10.52,0,0,1-1.49.47,9.08,9.08,0,0,1-2.32.34,31.57,31.57,0,0,1-4.8-.3c-2.78-.36-4.42-1.34-5.16-2.68s-.65-3.1,2.16-3.9a28.79,28.79,0,0,1,4-.72,9.27,9.27,0,0,1,4,.3h0c-.2.45,1.19.59,1.39.14a.8.8,0,0,0,.08-.16c.11-.07.16-.15.13-.24A5,5,0,0,1,45.44,264a21.27,21.27,0,0,1,2.8-.61c1.11-.19,2.21-.4,3.33-.57a7.7,7.7,0,0,1,5.09,1.33,5,5,0,0,1,1.66,1.67,1.32,1.32,0,0,0,.45,1.11c.31.31,1.38.12,1.33-.22a3.25,3.25,0,0,0-.35-1C60,265,61,264.37,62.2,264a31.32,31.32,0,0,1,6.75-1.1,17.43,17.43,0,0,1,6.15.48,4.49,4.49,0,0,1,3,2.74c.21.44,1.59.2,1.38-.23a5.38,5.38,0,0,0-2-2.36.7.7,0,0,0,.54-.25c.77-1.33,4.13-1.54,6.41-1.79,1.54-.17,3.08-.37,4.63-.52a17.49,17.49,0,0,1,4-.1c2.26.31,3.86,1.62,3.9,2.75,0,.05,0,.1,0,.15-.65.06-.88.51-.33.65-.86.94-3.15,1.57-5.07,1.84-.9.13-.49.8.41.67,2.21-.31,4.84-1.06,5.91-2.12.07-.07.12-.15.18-.22,2.3.3,4.11,1,4.8,2.19A4,4,0,0,1,103.26,269.09Z" transform="translate(-3.57 -217.84)"/><path class="cls-3" d="M583,452.5q-45.5-16.08-91.85-27.43A935.61,935.61,0,0,0,370.4,403.81a918.65,918.65,0,0,0-123-5.14q-4.26.1-8.52.26,0-8.54.08-17.06.11-18.09.19-36.19l.1-20.06,13.81-1.39c.63-.06.67-1.06,0-1q-23.31,2.4-46.64,4.62T160,332.07c-4.88.43-9.77.83-14.65,1.24,0-.15,0-.31,0-.47a.24.24,0,0,0,0-.09,3.56,3.56,0,0,1-1,.18c0,.15,0,.31.05.47-3.48.29-7,.6-10.44.88-.63.06-.67,1.06,0,1l10.58-.89q2,18.74,5.73,37.23,3.49,17,8.52,33.53-16.12,2-32.2,4.59A403.64,403.64,0,0,0,74.75,421.3a188.27,188.27,0,0,0-6.56-33.58q-1.39-4.77-3-9.47a12,12,0,0,0-1.29-4.57.5.5,0,0,0-.88.48,11,11,0,0,1,1.11,3.51.42.42,0,0,0,0,.4l.14.42c.28,3.94-1.43,8-3.84,11.1A5.69,5.69,0,0,1,58.91,391a7.56,7.56,0,0,1-2.08.78,31.68,31.68,0,0,1-4.41.82,30.78,30.78,0,0,1-4.6.18,6.38,6.38,0,0,1-2-.21,2.43,2.43,0,0,1-1.26-1.5c-1-2.32-1.64-5.54.27-7.59.43-.47-.25-1.2-.69-.73a6.17,6.17,0,0,0-1.52,4.63,6.85,6.85,0,0,1-4.25,4.22,15.91,15.91,0,0,1-3.27.86c-.58.1-1.16.18-1.75.26-.24,0-.67.16-.9.05s-.4-.49-.52-.72a9.33,9.33,0,0,1-1-6.56,6.68,6.68,0,0,1,3.74-4.55c.59-.26.11-1.14-.48-.88a7.1,7.1,0,0,0-3.5,3.35.51.51,0,0,0-.32,0c-1.52.65-3.17-.48-4.09-1.63a6.71,6.71,0,0,1-1.44-4.33A5.53,5.53,0,0,1,30,372.13a5.34,5.34,0,0,0,.8,0,.5.5,0,0,0,0-1,6.49,6.49,0,0,0-.76,0c-2.22-.21-3.79-2.11-4.81-4a32.73,32.73,0,0,1-2.75-7.1,29,29,0,0,1-1.06-7.46,7.17,7.17,0,0,1,.67-3.32A5.07,5.07,0,0,1,24.51,347a10.9,10.9,0,0,1,8.41.06c.52.21.78-.46.52-.82a7.17,7.17,0,0,1-.55-7.79c1.7-2.8,5.92-1.15,7.8.57.47.44,1.2-.25.73-.68a7.85,7.85,0,0,0-1.09-.84.45.45,0,0,0-.16-.2,6.35,6.35,0,0,1-2-3.34,29.17,29.17,0,0,1-1-4.21,28,28,0,0,1,.08-8.81c.74-4.34,3-9.93,8.21-9.78a6.92,6.92,0,0,1,5.86,3.41c.26.48,1.1.2.92-.36-.62-1.92-1.32-4-.61-6s2.75-2.62,4.73-2.65a4.94,4.94,0,0,1,3,.71,4.7,4.7,0,0,1,1.58,2,16.41,16.41,0,0,1,1.15,6c0,.71-.22,2,.57,2.35s1.85-.27,2.56-.52c1.95-.69,4.06-1.41,6.15-1,3.38.67,5.72,3.83,6.61,7a8.25,8.25,0,0,1-.33,6.27,3.88,3.88,0,0,1-4.82,1.85c-.59-.27-.88.69-.3.95a4.24,4.24,0,0,0,3.37,0,.49.49,0,0,0,.23,0,22.33,22.33,0,0,1,6.07-1.51,9.31,9.31,0,0,1,5.66,1.66A14.88,14.88,0,0,1,94.22,340c.4,1.81-.15,4.51-2.41,4.71-.63.05-.69,1,0,1a13.29,13.29,0,0,1,5.54.47,5.84,5.84,0,0,1,3.33,3.79,8.5,8.5,0,0,1,0,5.37,4.36,4.36,0,0,1-3.16,2.86.49.49,0,0,0-.4-.09l-.48.1a17,17,0,0,0-6.35-2.82,7,7,0,0,0-4.71.51c-1.42.73-2.64,1.84-4.18,2.35-.6.2-.37,1.18.24,1,2.48-.83,4.34-3.17,7.12-3a14.44,14.44,0,0,1,7.36,2.89.49.49,0,0,0,.18.14A19.82,19.82,0,0,1,104,373c.55,4.63.09,11.48-4.71,13.85-2.48,1.23-5.49.93-8.1.32a23.73,23.73,0,0,1-6.73-2.72A24.52,24.52,0,0,1,74.84,374a.31.31,0,0,0,0-.1c-.29-.63-.56-1.27-.79-1.92s-1.19-.37-1,.24.56,1.42.88,2.11v0a123.92,123.92,0,0,0,9,33.55q1.95,4.56,4.27,9a.5.5,0,0,0,.87-.48,123,123,0,0,1-11.62-32.59c-.47-2.32-.85-4.65-1.19-7a25.63,25.63,0,0,0,7.31,7.65,24.88,24.88,0,0,0,7,3.34,16.29,16.29,0,0,0,8.36.57c5.7-1.42,7.21-7.79,7.13-12.91a21.64,21.64,0,0,0-6.69-15.8c-.17-.16-.36-.31-.54-.47a5,5,0,0,0,2.69-1.64,7.06,7.06,0,0,0,1.53-4.64c0-3.15-1.38-6.46-4.48-7.66a10,10,0,0,0-3.56-.58,4.44,4.44,0,0,0,1.23-2.33c.39-2.14-.52-4.35-1.55-6.17-2-3.53-5.56-6.89-9.72-7.45a13.77,13.77,0,0,0-5.82.72,7.43,7.43,0,0,0,1.26-4.7c-.16-3.73-2.08-7.71-5.38-9.64a8.24,8.24,0,0,0-5.78-.89,23.54,23.54,0,0,0-3.48,1c-.29.1-.57.21-.86.3s-.5.26-.69.2-.11-.61-.11-.82,0-.69,0-1a16.24,16.24,0,0,0-1.41-6.38,5.28,5.28,0,0,0-4.8-3c-2.26-.07-4.78.53-5.87,2.71a7.22,7.22,0,0,0-.32,4.93,8.17,8.17,0,0,0-4-1.89,7.51,7.51,0,0,0-6.48,2,13.63,13.63,0,0,0-3.53,7,29.19,29.19,0,0,0-.53,9.64,29.59,29.59,0,0,0,1.12,5.35,11.29,11.29,0,0,0,.91,2.21c-2.13-.75-4.51-.72-5.9,1.19a7.9,7.9,0,0,0-.32,8.09c-4.54-1.24-10.6-.15-11.42,5.21a22.76,22.76,0,0,0,.7,8.25,35.09,35.09,0,0,0,2.92,8.07A10,10,0,0,0,28,371.55a6.68,6.68,0,0,0-4.09,6.25A7.7,7.7,0,0,0,26,382.89a4.71,4.71,0,0,0,4.31,1.61,9.51,9.51,0,0,0-.21,5.29,11.77,11.77,0,0,0,1.15,2.91,1.74,1.74,0,0,0,2,1,19.85,19.85,0,0,0,6.36-1.56,8.15,8.15,0,0,0,3.37-3c.08.34.17.67.28,1,.39,1.16.88,2.65,2.07,3.2a5.65,5.65,0,0,0,2,.35c.91,0,1.81.05,2.72,0a33.29,33.29,0,0,0,5.18-.61,11.39,11.39,0,0,0,4.52-1.53,11.85,11.85,0,0,0,2.78-3.46,18.9,18.9,0,0,0,2-4.43,15.41,15.41,0,0,0,.55-2.53,187.87,187.87,0,0,1,7.63,31.89c.42,2.83.76,5.66,1,8.51a238.77,238.77,0,0,0-57,25.43q-6.6,4.13-13,8.8c-.42.31-.07,1.18.35.88,22-16,45.61-26.66,69.78-34.08,0,.21,0,.43.07.65.06.63,1.06.67,1,0,0-.33-.07-.65-.1-1a366.87,366.87,0,0,1,38.49-9.28c15.17-2.86,30.41-5.18,45.68-7.05l.39,1.27a5.19,5.19,0,0,1,1-.23l-.36-1.16q13.69-1.67,27.42-2.85c0,.18,0,.37,0,.56h.3c.24,0,.47,0,.7.07,0-.23,0-.47,0-.71q12.07-1.05,24.15-1.76v.25a5.08,5.08,0,0,1,1-.18.57.57,0,0,0,0-.13q10.25-.62,20.49-1l3.8-.14v.46a5,5,0,0,1,.67,0l.33,0v-.49A919.09,919.09,0,0,1,355.4,403.3a931.54,931.54,0,0,1,121.89,19.51,954.62,954.62,0,0,1,105.5,30.64A3.36,3.36,0,0,1,583,452.5ZM213.58,400.13a106,106,0,0,0-2.75-21c-.59-2.53-1.29-5-2.06-7.51-.2-.61-1.17-.38-1,.24a105.34,105.34,0,0,1,4.74,26.63c0,.56,0,1.12.05,1.68q-12.09.76-24.19,1.83-.87-11.16-2.39-22.26-.54-3.88-1.17-7.77c-.1-.64-1.07-.4-1,.23q2.16,13.47,3.32,27.06c.08.94.14,1.89.21,2.83q-13.81,1.25-27.61,2.92-1.82-6-3.43-12a378.54,378.54,0,0,1-8.17-38.27q-1.62-10.2-2.68-20.47,17.56-1.49,35.12-3.07,23.22-2.1,46.41-4.39c3.75-.36,7.49-.75,11.24-1.13l-.18,35.65-.18,36.2V399Q225.74,399.4,213.58,400.13Z" transform="translate(-3.57 -217.84)"/><path class="cls-3" d="M45.33,359.23c-3-2-2.62-6.1-2.23-9.19.08-.64-.92-.66-1,0-.44,3.49-.69,7.89,2.7,10.07A.5.5,0,0,0,45.33,359.23Z" transform="translate(-3.57 -217.84)"/><path class="cls-3" d="M64.49,333.2c-1.62-2.2-4-3.7-6.28-5.14a.5.5,0,0,0-.53.85,22.93,22.93,0,0,1,5.74,4.53,7.33,7.33,0,0,1,1.65,6.65.5.5,0,0,0,1,.29A8.18,8.18,0,0,0,64.49,333.2Z" transform="translate(-3.57 -217.84)"/><path class="cls-3" d="M70,360.91a7.39,7.39,0,0,1-4.59-3.59.5.5,0,0,0-.88.48,8.42,8.42,0,0,0,5.18,4.07C70.32,362,70.62,361.08,70,360.91Z" transform="translate(-3.57 -217.84)"/><path class="cls-3" d="M55.68,373.88a2,2,0,0,0-1.15-1.23.5.5,0,0,0-.62.33.51.51,0,0,0,.33.63h0l.09,0,.07,0,.12.12a.35.35,0,0,1,.05.08,1.07,1.07,0,0,1,.2.54,1.56,1.56,0,0,1,0,.25,1.15,1.15,0,0,1,0,.19s0,.07,0,.09-.06.23-.1.34a1.14,1.14,0,0,1-.12.26,1.89,1.89,0,0,1-.52.54,3.23,3.23,0,0,1-.73.4,7.7,7.7,0,0,1-1.79.45.51.51,0,0,0-.36.61.5.5,0,0,0,.6.37A6,6,0,0,0,55,376.63,2.7,2.7,0,0,0,55.68,373.88Z" transform="translate(-3.57 -217.84)"/><path class="cls-3" d="M37.09,365.07a16.45,16.45,0,0,1-4.34-10.6c0-.64-1-.67-1,0a17.57,17.57,0,0,0,4.61,11.32A.5.5,0,0,0,37.09,365.07Z" transform="translate(-3.57 -217.84)"/><path class="cls-3" d="M50.46,330.09c-2.93-2-3.3-5.79-3.56-9,0-.64-1-.68-1,0,.29,3.58.77,7.68,4,9.87C50.46,331.3,51,330.45,50.46,330.09Z" transform="translate(-3.57 -217.84)"/><path class="cls-3" d="M85.53,337.1c-.34-.55-1.22-.07-.88.48A6,6,0,0,1,86,341c-.06.83-.64,1.85-1.56,1.88-.64,0-.68,1,0,1a2.84,2.84,0,0,0,2.55-2.47C87.17,339.82,86.32,338.37,85.53,337.1Z" transform="translate(-3.57 -217.84)"/><path class="cls-3" d="M94.31,372.33a.5.5,0,0,0-.6-.37.51.51,0,0,0-.37.6c.12,1.16.29,2.62-.46,3.61a2,2,0,0,1-1.07.74,1.26,1.26,0,0,1-1.16-.17.5.5,0,1,0-.53.84,2.64,2.64,0,0,0,3.45-.68C94.64,375.64,94.47,373.86,94.31,372.33Z" transform="translate(-3.57 -217.84)"/><path class="cls-3" d="M73.24,266a17.33,17.33,0,0,0-4.66-.28c-1.19.13-3.08.49-3.44,1.86-.17.62.79.92,1,.3s.73-.72,1.18-.87a7.51,7.51,0,0,1,1.81-.34,17.37,17.37,0,0,1,3.87.29.52.52,0,0,0,.62-.33A.5.5,0,0,0,73.24,266Z" transform="translate(-3.57 -217.84)"/><path class="cls-3" d="M230.8,263a.51.51,0,0,0-.63.33,1.24,1.24,0,0,1-1.42.95,2.61,2.61,0,0,1-.82-.63,10.47,10.47,0,0,1-.89-1,.51.51,0,0,0-.71,0,.52.52,0,0,0,0,.71,11.76,11.76,0,0,0,1.07,1.16,2.81,2.81,0,0,0,1.32.79,2.1,2.1,0,0,0,1.59-.46,2,2,0,0,0,.84-1.21A.52.52,0,0,0,230.8,263Z" transform="translate(-3.57 -217.84)"/><path class="cls-3" d="M200.51,255.65a2.35,2.35,0,0,1-1.19-1.31,3.9,3.9,0,0,1,.14-2.29.5.5,0,1,0-1-.29,4.81,4.81,0,0,0-.14,2.88A3.35,3.35,0,0,0,200,256.5a.51.51,0,0,0,.69-.16A.49.49,0,0,0,200.51,255.65Z" transform="translate(-3.57 -217.84)"/><path class="cls-3" d="M226.56,251.5a1.43,1.43,0,0,0-.32-.84,1.6,1.6,0,0,0-.9-.36l-1.14-.19a34.63,34.63,0,0,0-4.55-.39.5.5,0,0,0,0,1,36.55,36.55,0,0,1,3.91.3,16.21,16.21,0,0,1,1.85.3c.11,0,.11,0,.16.1a1.55,1.55,0,0,1,.07.43l.12,1c.09.63,1.06.39,1-.24C226.66,252.21,226.61,251.86,226.56,251.5Z" transform="translate(-3.57 -217.84)"/><path class="cls-3" d="M244.52,255.47a.5.5,0,1,0-.72.68,2.85,2.85,0,0,1,.61,1.92,2.74,2.74,0,0,1-.22,1,1.72,1.72,0,0,1-.23.42l-.12.11c-.06.05-.07,0-.15,0a.5.5,0,0,0-.51.48.51.51,0,0,0,.48.52c1.16.09,1.66-1.45,1.74-2.36A3.9,3.9,0,0,0,244.52,255.47Z" transform="translate(-3.57 -217.84)"/><path class="cls-3" d="M313.52,244c-2,1.88-4.87.16-6.72-1-.54-.35-1.07.5-.53.85a11.22,11.22,0,0,0,4.2,1.92,4.45,4.45,0,0,0,3.74-1A.5.5,0,0,0,313.52,244Z" transform="translate(-3.57 -217.84)"/><path class="cls-3" d="M323,243.8a1.55,1.55,0,0,1-1.9,1,22.44,22.44,0,0,1-2.94-1.06.5.5,0,0,0-.29,1c1.2.36,2.29,1.1,3.58,1.13a2.45,2.45,0,0,0,2.51-1.7C324.08,243.48,323.12,243.18,323,243.8Z" transform="translate(-3.57 -217.84)"/><path class="cls-3" d="M316.05,247.93a.54.54,0,0,0-.35-.16.48.48,0,0,0-.36.14.54.54,0,0,0-.16.35l0,.89a.52.52,0,0,0,.14.35.5.5,0,0,0,.35.16.48.48,0,0,0,.51-.48l0-.89A.57.57,0,0,0,316.05,247.93Z" transform="translate(-3.57 -217.84)"/><path class="cls-3" d="M321.07,253.25a3.61,3.61,0,0,1-4.13,2,7.5,7.5,0,0,1-2.51-1.22,10,10,0,0,0-2.3-1.4c-.61-.22-.9.73-.3.95a15.38,15.38,0,0,1,2.63,1.67,7.06,7.06,0,0,0,3,1.08,4.54,4.54,0,0,0,4.49-2.51C322.2,253.21,321.35,252.67,321.07,253.25Z" transform="translate(-3.57 -217.84)"/><path class="cls-3" d="M316.64,232.49a.5.5,0,0,0,0,1A.5.5,0,0,0,316.64,232.49Z" transform="translate(-3.57 -217.84)"/><path class="cls-3" d="M318.56,233.46a.5.5,0,0,0,0,1A.5.5,0,0,0,318.56,233.46Z" transform="translate(-3.57 -217.84)"/></svg>