<svg id="Layer_1" data-name="Layer 1" xmlns="http://www.w3.org/2000/svg" viewBox="0 0 373.06 392.67"><defs><style>.cls-1,.cls-2{fill:#231f20;}.cls-2{stroke:#231f20;stroke-miterlimit:10;stroke-width:6px;}</style></defs><path class="cls-1" d="M440,269.48c.19-33-13.61-65.78-38-88.23a119.89,119.89,0,0,0-92.56-30.62,3.6,3.6,0,0,0-3.07,2.39,2.4,2.4,0,0,0-.23.11q-49.46,30.06-100.54,57.34-25.32,13.5-51,26.29-12.84,6.39-25.78,12.61c-2,1-4.07,2-6.13,2.94a65.69,65.69,0,0,0-22,6.53h-.07a3.32,3.32,0,0,0-2.74,1.49,55.62,55.62,0,0,0-16.6,14.27c-8.43,11-10.37,24.42-12.17,37.77-2.19,16.17-3.17,32.32-.68,48.52.41,2.66,3,3,4.84,2l0,0,80.36,40,40.18,20c6.12,3,12.17,6.29,18.38,9.14,5.64,2.59,10.33,2.37,15.46-1.23,11.5-8.07,22.43-17.07,33.79-25.35s22.9-16.43,34.47-24.47c-.12.47-.22.95-.32,1.42a10.74,10.74,0,0,1,2.31-1.55c.55-.27,1.12-.5,1.69-.76.25-.11.5-.23.74-.36s1.28-.91.05.09a5.74,5.74,0,0,1,3.38-1.36c.19-.72.38-1.45.58-2.18a3.36,3.36,0,0,0,.11-1.2c21.12-14.55,42.43-28.83,63.73-43.11q20.37-13.67,40.74-27.32c11.2-7.55,22.2-15.53,29.41-27.21a3.21,3.21,0,0,0-1.37-4.7A3.28,3.28,0,0,0,440,269.48ZM217.5,426.76c-2.4-.61-4.81-2.21-6.73-3.16l-10.71-5.34-37.51-18.69-85.72-42.7a3.51,3.51,0,0,0-2-.37c-1.6-12.44-1-25,.44-37.48,1.36-11.7,2.38-24.78,8.29-35.23a46.75,46.75,0,0,1,19-18.07c7.75-.64,14.87-3.33,21.91-6.55a59.05,59.05,0,0,1,6.08-.29c24,.11,42.55,13.17,56.15,31.14a3.43,3.43,0,0,0-1.41.5q-52.84,31.77-107.62,60.17c-4,2.07-.46,8.11,3.54,6q54.73-28.38,107.61-60.17a3.35,3.35,0,0,0,1.42-1.59c10.42,15.39,17.55,33.57,21.68,50.15,3.34,13.41,5.63,27.06,7.72,40.71S223.33,413.91,217.5,426.76ZM432.32,274c-6.41,10.38-16.28,17.52-26.23,24.24-11.59,7.83-23.23,15.58-34.84,23.37-22.56,15.12-45.15,30.21-67.53,45.59-22.82,15.68-45.42,31.7-67.5,48.42q-3.85,2.91-7.68,5.85c-.79.61-1.61,1.34-2.46,2.05,2.92-9.93,2.79-20.35,1.51-30.8-1.63-13.32-3.94-26.66-6.73-39.78-5.32-25-13.89-49.79-30.47-69.65-13.08-15.68-31.32-28.11-51.82-30.84q6.81-3.31,13.59-6.66,27-13.34,53.64-27.47,52.82-28,103.91-59.14a3.28,3.28,0,0,0,1.45-1.69c31.08-2.71,62.88,7.48,85.93,28.72A113.1,113.1,0,0,1,433,269.48a3.13,3.13,0,0,0,1.61,2.9A3.31,3.31,0,0,0,432.32,274Z" transform="translate(-66.94 -150.03)"/><path class="cls-1" d="M346.19,288.16c-.66-1.79-3.56-1-2.89.8,2.08,5.67-.51,11.85-4.86,15.71-5,4.42-12,6-18.39,6.65-7.05.76-14.48.55-20.83-2.95-5.7-3.14-10.29-8.29-13.59-13.83a21.34,21.34,0,0,1-3.35-9.71,17.76,17.76,0,0,1,2.41-9.52A27.83,27.83,0,0,1,299,263.14a28.91,28.91,0,0,1,9-1.92c3.25-.15,6.74.13,9.55,1.91s4.9,4.73,6.82,7.28a23.57,23.57,0,0,1,4.47,8.79,11.39,11.39,0,0,1-1.45,8.56,7.36,7.36,0,0,1-3,2.76,4.25,4.25,0,0,1-4.73-.53,31.66,31.66,0,0,1-11.83-17.19,1.52,1.52,0,0,0-2.74-.36,38.82,38.82,0,0,0-3.71,11.39c-.51,3.32-.67,6.82.8,9.94a7.79,7.79,0,0,0,8.21,4.38,7.68,7.68,0,0,0,6.32-6.66,10.08,10.08,0,0,0,4.47,2.49,8,8,0,0,0,5-1,11.79,11.79,0,0,0,5.35-7c2.18-7.2-1.93-13.94-6.33-19.32-2.42-3-4.88-5.86-8.54-7.27a23.12,23.12,0,0,0-11.17-.9c-13.86,1.79-29.26,14.6-25.66,29.94A30.54,30.54,0,0,0,284.94,299a44.74,44.74,0,0,0,7.37,8.23,30.94,30.94,0,0,0,9.49,5.63,35.18,35.18,0,0,0,12.13,1.87c7.58,0,15.88-1.18,22.55-5,6-3.39,10.63-9.64,10.58-16.72A14.16,14.16,0,0,0,346.19,288.16Zm-32.47,3a4.67,4.67,0,0,1-5.11,4.11c-2.62-.29-4-2.53-4.47-4.92a20.06,20.06,0,0,1,.45-7.67,36.31,36.31,0,0,1,1.59-5.33,34.61,34.61,0,0,0,8.55,12.5A1.55,1.55,0,0,0,313.72,291.12Z" transform="translate(-66.94 -150.03)"/><path class="cls-2" d="M261.3,519.35l.17-113.82c-.37,38.14-.42,76-.32,113.74Z" transform="translate(-66.94 -150.03)"/><path class="cls-2" d="M338.41,352.07c-.11,17.38-.05,34.69.08,52Z" transform="translate(-66.94 -150.03)"/><path class="cls-2" d="M339,519.2c.26-38.49-.28-76.75-.55-115.15l.16,115.35Z" transform="translate(-66.94 -150.03)"/><path class="cls-2" d="M302.67,537.77l-2.23-114.94c.72,38.33,1.4,76.56,2.18,115Z" transform="translate(-66.94 -150.03)"/><path class="cls-2" d="M300.44,422.83q-.39-21.29-.82-42.66Z" transform="translate(-66.94 -150.03)"/><line class="cls-2" x1="194.43" y1="321.2" x2="234.83" y2="341.34"/><line class="cls-2" x1="234.83" y1="341.34" x2="273.9" y2="315.42"/><path class="cls-1" d="M281.77,454.63c-6.44,0-6.45,10,0,10S288.21,454.63,281.77,454.63Z" transform="translate(-66.94 -150.03)"/><path class="cls-1" d="M320.8,450.41c-6.43,0-6.44,10,0,10S327.25,450.41,320.8,450.41Z" transform="translate(-66.94 -150.03)"/></svg>