<svg id="Layer_1" data-name="Layer 1" xmlns="http://www.w3.org/2000/svg" viewBox="0 0 461.09 271.75"><defs><style>.cls-1,.cls-3{fill:none;stroke:#231f20;stroke-miterlimit:10;}.cls-1{stroke-width:6px;}.cls-2{fill:#231f20;}.cls-3{stroke-width:5px;}</style></defs><ellipse class="cls-1" cx="444.3" cy="345.86" rx="19.78" ry="77.57" transform="translate(-171.85 -75.2) rotate(-18.65)"/><path class="cls-2" d="M465.21,418.09c-21.12,8.85-43.55,11.58-65.67,15.22-22,3.62-43.76,8.83-65.56,13.76l-30,6.83a14.69,14.69,0,0,1-4.12,1.05l-.1,0-1,.21c-.44.09-.88.16-1.32.23l-1.33.22-.66.12h0l-.27.14q-46.86,10.68-93.71,21.49-37.49,8.67-75,17.45c-2,.47-2.51,2-2,3.07a1.34,1.34,0,0,1,.65,1,1.46,1.46,0,0,1,.16.36c.65.69.48,2-1,2.45a2,2,0,0,1-.45.11,1.66,1.66,0,0,1,.06.21c-.16-.05-.3-.12-.45-.18a1.5,1.5,0,0,1-1.14-.49c-6-2.89-9.39-9.15-12.29-13.95a121.09,121.09,0,0,1-10.4-22.77c-2.61-7.42-4.74-15-6.82-22.59-1-3.76-2.39-7.57-2.3-11.59,0-1.13-.21-2.93.71-3.92a4.28,4.28,0,0,1,4.91-.63,3.27,3.27,0,0,1,.74.79,2.45,2.45,0,0,1,.76.52,26.11,26.11,0,0,1,3.67,5.6,4.34,4.34,0,0,0,.92-.31l124.53-58.9,61.81-29.24c20.16-9.54,40.43-19,59.69-30,20.92-11.89,40.52-26.05,63.91-34.05,3.65-1.25,2.2-5.58-1.46-4.32-20.3,6.95-37.89,18.37-55.8,29.11-18.85,11.3-38.72,21.09-58.77,30.61Q233.63,365.43,171,395l-67.72,32c-.84-3.07-2.54-5.85-6.63-6.7A9.87,9.87,0,0,0,86,425.12c-2.32,4.39-1.25,9.34-.27,13.45,1.38,5.76,3.08,11.45,4.77,17.11,3.25,10.9,7.1,21.63,12.69,31.64,4.36,7.81,9.52,17.38,20.59,19.85l.83-.17.53-.11.4-.09c.42-.11.84-.22,1.24-.36l.49-.17c.05,0,.33-.15.43-.18l.72-.4c1.43-2.27,1.76-4.36.85-6.54a1.1,1.1,0,0,0-.15-.26q35.22-8.25,70.44-16.39l.05.1a3.36,3.36,0,0,1,.85-.09,11.48,11.48,0,0,1,4.9,1.09,8.64,8.64,0,0,1,2.58,1.75c2,1.08,4.18,2.6,5,2.93a37.94,37.94,0,0,0,10.78,2.28,64.77,64.77,0,0,0,23.83-3.19c9.25-2.92,17.92-7.41,26.31-11.95,9.65-5.23,19.26-10.53,28.9-15.79a5.3,5.3,0,0,0,1.47-1.15q12.42-2.82,24.85-5.64c22.15-5,44.33-10.4,66.62-14.22,23.84-4.09,48.18-6.66,71-16.21C470.19,420.93,468.76,416.59,465.21,418.09Zm-194.12,51c-8.78,4.78-17.72,9.55-27.51,12.38-7.85,2.26-16.53,3.07-23.72,1.05a32.57,32.57,0,0,1-6.58-3.15q24.14-5.58,48.27-11.12l19.05-4.35Z" transform="translate(-84.58 -235.42)"/><path class="cls-3" d="M450,268.54l41.68-31.12" transform="translate(-84.58 -235.42)"/><path class="cls-3" d="M473.55,300.73l42.22-19.08,4.25-1.92" transform="translate(-84.58 -235.42)"/><line class="cls-3" x1="401.96" y1="104.46" x2="450.69" y2="88.86"/><line class="cls-3" x1="411.16" y1="131.71" x2="458.07" y2="123.92"/><path class="cls-3" d="M498.84,402c15.32.22,30.75-1,46.8-1.21" transform="translate(-84.58 -235.42)"/></svg>