<svg id="_0" data-name="0" xmlns="http://www.w3.org/2000/svg" viewBox="0 0 510.79 596.52"><defs><style>.cls-1,.cls-2{fill:none;stroke-linecap:round;stroke-linejoin:round;stroke-width:0.71px;}.cls-1{stroke:red;}.cls-2{stroke:blue;}.cls-3{fill:#01010c;}</style></defs><g id="LWPOLYLINE"><path class="cls-1" d="M565.13,163l-.69-.3" transform="translate(-54.7 -162.37)"/></g><g id="ARC"><path class="cls-2" d="M70.85,467.78l0,1.6" transform="translate(-54.7 -162.37)"/></g><g id="LWPOLYLINE-2" data-name="LWPOLYLINE"><path class="cls-1" d="M563,758l-.67.58" transform="translate(-54.7 -162.37)"/></g><path class="cls-3" d="M310.14,403.46c-1.31-4.08-6.52-4.92-10.25-5.42a29.83,29.83,0,0,0-26,9.67,3,3,0,0,0-.93-.27c-30.13-3.48-46.86-33.09-66-53.32,9.09-4.24,17.4-10.56,20.79-20.12a1.06,1.06,0,0,0,.09-.25l.06-.16,0-.06c0-.06,0-.12.05-.18l0,0,.89-.79c.4-.25.8-.48,1.21-.69l.11,0a1.68,1.68,0,0,0,.24-.06h0l.37,0c.31,0,.62-.08.93-.14a3.61,3.61,0,0,1,.68-.12h.36a4.35,4.35,0,0,1,.46.11h0a.76.76,0,0,0,.35.16,33.11,33.11,0,0,0,11.73,6.56,33.59,33.59,0,0,0,29.93-5.49c4.13-3.18,7.75-7.47,9-12.62,1.37-5.59-.12-11.69-2.75-16.69-4.69-8.9-14.29-14.76-24.44-12.43a18.06,18.06,0,0,0-7.29,3.52c-2,1.65-4.19,4-3.37,6.87s4.14,4.63,6.59,6a57.33,57.33,0,0,0,9.37,4.18c1.83.63,2.61-2.27.8-2.9a51.83,51.83,0,0,1-7.27-3.12c-2-1.06-4.67-2.23-6.1-4.09s.73-3.79,2.23-4.92a15.3,15.3,0,0,1,5.49-2.58c8.75-2.19,17,2.95,21.13,10.48,2.36,4.26,3.86,9.63,2.81,14.48-1,4.51-4.06,8.24-7.58,11.08a30,30,0,0,1-42-4.23,25.65,25.65,0,0,1-2-6.11c.1-10.76-2.58-22.05-6.07-31.56-.32-.89-.67-1.77-1-2.65l-.48-1.81a9.25,9.25,0,0,1-.24-1.07,3.12,3.12,0,0,1,0-.61s0-.35,0-.15a2,2,0,0,1,.05-.24,1.35,1.35,0,0,1,.3-.57l.1-.09.09-.06.19-.06.11,0h0a3,3,0,0,1,1,.08c.42.09.85.19,1.27.3a1.27,1.27,0,0,0,.28,0,1.08,1.08,0,0,0,.46.11,1,1,0,0,0,.17,0,20.8,20.8,0,0,0,11.24,2c8.46-1,14.3-7.86,18.44-14.72,2.38-4,4.58-8.27,5.27-12.9a18.24,18.24,0,0,0-2.61-12.43c-4.29-6.89-12.91-13.12-21.36-12.22-4.26.46-9.17,3.27-8.21,8.25.47,2.45,2.19,4.71,3.64,6.67a47.13,47.13,0,0,0,5.28,6c1.39,1.34,3.52-.78,2.12-2.12a38.44,38.44,0,0,1-7.44-9.44c-.87-1.63-1.06-3.3.39-4.63A7.77,7.77,0,0,1,237.3,234c7.2-.76,14.6,4.64,18.36,10.43a15.29,15.29,0,0,1,2.48,10.64c-.59,4.06-2.49,7.83-4.55,11.33-3.37,5.74-8,11.94-14.78,13.61-9.2,2.25-17.37-4.61-23.82-10.2a93.77,93.77,0,0,0-11.63-15.17,28.75,28.75,0,0,1-3.45-9.84,11.79,11.79,0,0,1-.18-2.72,13.9,13.9,0,0,1,.88-3.21l0-.09c.26-.47.52-.94.79-1.41a11.71,11.71,0,0,1,.94-1.46l.06-.09.15-.16a.69.69,0,0,1,.11-.13c.25-.23.49-.45.72-.68,5.57-5.46,9.75-13.15,6.12-20.85-3.14-6.67-10.48-11-17.55-12.18a28,28,0,0,0-11,.28,26,26,0,0,0-5,1.73,12,12,0,0,0-4.53,3.07c-3,3.86,1.55,8.53,4.48,10.79a21.42,21.42,0,0,0,12,4.42c1.93.1,1.93-2.9,0-3a18.32,18.32,0,0,1-9.06-3c-1.71-1.12-6.95-5.12-4.93-7.53a10.71,10.71,0,0,1,3.73-2.24,23,23,0,0,1,4.13-1.36,24.38,24.38,0,0,1,9-.34c5.92.89,11.9,4,15.18,9.15a11.52,11.52,0,0,1,1.57,9.27,20.17,20.17,0,0,1-4.86,8.2c-4.74,5.19-12.07,10.79-19.53,9.42a33.44,33.44,0,0,0-7.05-1.31,48.36,48.36,0,0,0-9.24.2h-.06a31.36,31.36,0,0,1-5.12-.3,14.11,14.11,0,0,1-4.39-1.11,8.29,8.29,0,0,1-3.18-3,6,6,0,0,1-.9-2c-.17-.76-.17-1.56-.28-2.33,0-.27.06-.55.07-.81.3-6.3-2-13.1-6.9-17.25-6.31-5.33-14.94-4.85-22.58-3.47a57.56,57.56,0,0,0-12.39,3.63c-1.78.76-4.07,1.53-5.37,3a4.7,4.7,0,0,0-.62,4.91c1.47,3.76,5.6,6.47,9.13,8.07a24.79,24.79,0,0,0,12.44,2.19c1.91-.17,1.93-3.17,0-3A21.75,21.75,0,0,1,109.5,222c-.82-.84-2.16-2.44-1.69-3.73.26-.73,1.18-1.06,1.81-1.39.81-.41,1.63-.8,2.46-1.16a52.55,52.55,0,0,1,10.48-3.24c6.44-1.34,14.15-2.38,20,1.32,4.48,2.82,7,8.12,7.4,13.28a20.56,20.56,0,0,1-.07,4.22,20.24,20.24,0,0,1-2.82,4.95l-.18.24a29.09,29.09,0,0,1-2.47,2.74,14,14,0,0,1-3,2.15.7.7,0,0,0-.24.13l-.92.48a33.79,33.79,0,0,0-4.32,2.31,63.41,63.41,0,0,0-20.61,12.07,10,10,0,0,1-11.42-4.19.91.91,0,0,0-.63-.44A20.83,20.83,0,0,0,93.83,245c-4.9-1.61-10.25-1.13-15.2,0s-10.51,2.65-14.93,5.44c-4.06,2.57-7.35,6.63-7.74,11.56S58.45,272,61.9,275.49a24.14,24.14,0,0,0,12.19,6.68c4,.82,9.13.6,12-2.85,3.33-4.08,2-10.75-2.34-13.57-4-2.56-10-.6-11.1,4.12-.45,1.87,2.44,2.67,2.9.8.76-3.16,4.9-3.94,7.19-1.94,2.58,2.26,3.22,7.13.31,9.4-2.74,2.14-6.88,1.6-10,.68a21.38,21.38,0,0,1-9.55-6c-2.68-2.92-5-7-4.52-11.1.45-3.89,3.4-7,6.62-9,3.69-2.24,8-3.48,12.18-4.52s8.34-1.72,12.49-1a17.63,17.63,0,0,1,11,6.76,39.36,39.36,0,0,1,3.45,5.29c.23.4.44.81.66,1.21.29,1.24.61,2.48.78,3.73a6.85,6.85,0,0,1-.29,2.78c-.74,1-1.46,2.1-2.13,3.2a55.72,55.72,0,0,0-7.94,24.68c-.29,1-.57,2-.82,3a13.81,13.81,0,0,0-.31,5.43c.2,1.4.4,3.63-.79,4.71-.68.61-1.72.15-2.44-.15A13,13,0,0,1,89,306.42a.81.81,0,0,0-.58-.18A20.15,20.15,0,0,0,80.31,304c-4.58-.32-9.18.54-13.64,1.45-4.12.84-8.17,2.21-10.35,6.08a14.12,14.12,0,0,0-1,10.92,20.33,20.33,0,0,0,7.31,9.63c3.52,2.72,7.86,5.31,12.34,5.83A11.31,11.31,0,0,0,85,334.14a8.2,8.2,0,0,0-.59-10.93,6.51,6.51,0,0,0-5.18-1.95c-2.57.26-4.62,1.87-6.54,3.48-1.48,1.24.65,3.35,2.13,2.12,2.26-1.9,5.52-4.08,7.87-1.08A5.17,5.17,0,0,1,82,333c-5.49,4.88-13.83-.16-18.36-4S55.4,318,59.34,312.32c2.09-3,6-3.6,9.35-4.26a46.33,46.33,0,0,1,11-1.13A17.14,17.14,0,0,1,91,311.76c3.16,2.95,6.23,6,9.32,9,4.63,9.94,12.38,18.24,21.28,24.74a80.57,80.57,0,0,0,7.63,4.92c.09.3.17.6.26.9C113,361.19,97,373.89,85.83,389.51c-5.47,7.66-9,16.42-9.39,25.89-.44,11.39,3.27,22.49,6.9,33.11,0,.09.08.17.11.25-5.9,5.39-17.65,15.26-9,22.35,2.9,2.37,7.78,3.57,11.36,2.26,5.18-1.88,4.22-7.7,7.46-11.26,2.92-3.22,5.73-2.31,9.23-1.09a5.74,5.74,0,0,0,5.17-.29c3.13-1.83,3.87-5.91,2.34-9-3.73-7.64-14.15-10.11-22-8.06-2.89-8.55-5.59-17.35-5.6-26.41,0-9.7,3.78-18.34,9.55-26,10.31-13.66,24.4-24.89,39.05-33.83,7.19,32.27-1.46,66-3,98.53-.9,18.84-.62,37.87-4.2,56.47-3.43,17.86-10,34.91-16.57,51.82-1.35,3.46,4,5,5.6,2l.19,0q18.88,1.8,37.84,1.93c0,8.42-.36,16.82-1.19,25.2-.2,2-.4,3.94-.66,5.91-.3,2.22.1,2.47-1.51,1.14-1.81-1.49-2.95-3.29-5.14-4.44-7-3.66-22.72-4.45-26.5,4.32-5.37,12.47,12.95,18.16,21.64,19.35,10.7,1.45,24.58-4.45,22.93-17.33a3.33,3.33,0,0,0-5.34-2.14c.78-4.48.85-9.31,1.17-13.72.43-6.09.6-12.19.6-18.3a433.61,433.61,0,0,0,52.68-3.58c4.57,8.89,6.94,17.84,9.66,27.22a2.82,2.82,0,0,0-1.78,1.31c-6.71,10.69-.29,24.5,8.78,31.58,7,5.51,22.52,9.48,27.61-.92,5.61-11.43-7.11-22.63-16.49-26.17-2.86-1.09-7-1.15-9.47-2.65-3.28-2-3.78-9.66-4.82-13.09a117.77,117.77,0,0,0-7.22-18.14,431.81,431.81,0,0,0,45.39-9.08c3.71-.95,2.18-6.65-1.51-5.8C237,488.21,233.24,421.7,206.6,362.51c19,21.14,35.91,47.41,66.38,50.93h.14c-.26,5-.16,10.38,3.13,14.5,2.69,3.36,7.31,5.22,11.48,3.58a6.48,6.48,0,0,0,4.11-4.22c.64-2.29-.77-3.59-.92-5.8-.56-8.41,10.85-5.3,15.32-7.35C310.13,412.37,311.4,407.38,310.14,403.46Zm-221,48.16a2.7,2.7,0,0,0,.84-2.45,13.24,13.24,0,0,1,7.69.39,16.65,16.65,0,0,1,4.08,2c1.39.37,2,1.16,1.82,2.35.35,1,.13,1.24-.66.65-.48.16-2.84-.84-3.38-.89a10.62,10.62,0,0,0-2.76.07,12.84,12.84,0,0,0-6.5,2.94,15.36,15.36,0,0,0-3.62,4.55c-1.47,2.77-2,6.85-5.79,6.4-5.63-.66-2.06-5.85.18-8.1C83.74,456.86,86.48,454.26,89.18,451.62ZM221.65,597.89a9.57,9.57,0,0,0,5.22,3c5.35,1.47,10.62,2.55,15.17,6,3.64,2.73,8.57,8.8,6.6,13.78-2.18,5.47-11.23,3.68-15.08,1.73C225.43,618.23,217.68,607,221.65,597.89Zm-94.38,12.76c-2.69-1.15-7.2-3.83-6.14-7.48.79-2.7,4.52-3.18,6.84-3.38,4.64-.42,10.43-.26,13.93,3.23,2.25,2.24,3.51,5.62,7.31,5.35,2.91-.22,4.54-2.7,5.23-5.27l0-.11C155.68,617.28,135.42,614.13,127.27,610.65Zm126.55-60.38a426.32,426.32,0,0,1-138.74,10.14c6-15.72,11.85-31.62,14.83-48.24,3.34-18.56,3.17-37.46,4.07-56.22,1.62-33.75,10.55-68.47,2.44-101.86a87.12,87.12,0,0,0,61.33,3.62C227.48,418.25,230.38,487.51,253.82,550.27Zm-51-200.81c-.77.34-1.55.66-2.33,1a2.29,2.29,0,0,0-.31-.16,16.34,16.34,0,0,1-1.54.68,7.61,7.61,0,0,1-1.9.81,4.55,4.55,0,0,1-.63.09,1,1,0,0,0-.09.18,81.21,81.21,0,0,1-62.57-6.08c-10.84-5.89-21-14.55-26.77-25.59-6.27-11.93-6.64-26.52-1.85-39,7.25-18.9,24.3-30.72,43.14-34a3.68,3.68,0,0,0,.3.5c.89-.37,1.81-.68,2.72-1a49.92,49.92,0,0,1,5.85-1.55c4.66-.81,9.2-.2,13.87-.14,2.26,0,4.5.07,6.76.23a8.18,8.18,0,0,1,3.26.79c.56.27,1.08.59,1.63.82a.77.77,0,0,0,0-.15,28.57,28.57,0,0,1,9.9,5.47,88.91,88.91,0,0,1,22.42,29.35,89.88,89.88,0,0,1,9,37.44c.11,6.84-.67,13.81-5.1,19.33C214.57,343.54,208.67,346.91,202.82,349.46Zm92.86,59.91c-5.33,1.12-10.13,5.1-10.67,10.78a10.77,10.77,0,0,0,.18,3.49,14.18,14.18,0,0,0,.73,2,3.67,3.67,0,0,1-4.57-.93c-3-2.88-2.41-8.12-2.2-11.84a2.72,2.72,0,0,0-.37-1.61A23.9,23.9,0,0,1,295,403.8c1.95-.1,8.9-.27,9.5,2.55C305.3,410.11,297.85,408.92,295.68,409.37Z" transform="translate(-54.7 -162.37)"/><path class="cls-3" d="M162,282.38a4.84,4.84,0,0,0-6.12.62l-.06.08a2.66,2.66,0,0,0-1,.08,3,3,0,0,0-2.1,3.69,6.69,6.69,0,0,0,4.61,4.73,5.68,5.68,0,0,0,6.3-2.8A4.88,4.88,0,0,0,162,282.38Z" transform="translate(-54.7 -162.37)"/><path class="cls-3" d="M198,289c-2-1.36-4.45-1.31-6.72-.89a3,3,0,0,0-2.09,3.69,2.84,2.84,0,0,0,2.1,2,4.25,4.25,0,0,0-.05,1.47c.29,2.13,2.54,3.49,4.54,3.52a4.77,4.77,0,0,0,4.79-3.75A6,6,0,0,0,198,289Z" transform="translate(-54.7 -162.37)"/><path class="cls-3" d="M184,336.77c-2.51,3.18-7.33,2.84-11,2.68a58.09,58.09,0,0,1-12.43-1.94A61.2,61.2,0,0,1,138,326.11a58.91,58.91,0,0,1-10-10.28c-1.15-1.52-3.76,0-2.59,1.51a63.76,63.76,0,0,0,47.17,25.09c4.51.23,10.37.39,13.47-3.54C187.28,337.39,185.17,335.25,184,336.77Z" transform="translate(-54.7 -162.37)"/><path class="cls-3" d="M169.21,460.09c-2.4-22.83-8.58-45.12-10-68.08-.24-3.83-6.24-3.86-6,0,1.38,22.34,7.25,44,9.79,66.18a200.55,200.55,0,0,1-3.79,67.33c-.86,3.76,4.92,5.37,5.78,1.6A205.55,205.55,0,0,0,169.21,460.09Z" transform="translate(-54.7 -162.37)"/><path class="cls-3" d="M199.65,470.66c-2.28-19.94-3.5-42.58-15.08-59.69-2.16-3.18-7.36-.19-5.18,3,11.59,17.14,12.53,40.58,14.69,60.53a667.73,667.73,0,0,1,3.83,67.81c0,3.86,6,3.87,6,0A667.77,667.77,0,0,0,199.65,470.66Z" transform="translate(-54.7 -162.37)"/><path class="cls-3" d="M200.49,384.07c-1.53-3.54-6.7-.49-5.18,3a334.69,334.69,0,0,1,27,114.1c.21,3.84,6.21,3.87,6,0A342.91,342.91,0,0,0,200.49,384.07Z" transform="translate(-54.7 -162.37)"/><path class="cls-3" d="M561,438.76c-1.6-6.2-6.82-10.32-12.18-13.28-1.11-.62-2.28-1.15-3.34-1.85a3.5,3.5,0,0,1-1.63-3.42c0-3.28.06-6.53-.17-9.8a96.45,96.45,0,0,0-10.66-37.78c-5.69-10.91-14.36-21.74-26.73-25a42.84,42.84,0,0,0,6.14-7.75c10.38-16.81,7.54-36.2-1.11-52.8a1.67,1.67,0,0,0,.39-.05,2.07,2.07,0,0,0,1.4-2.47c-.29-1.9-.81-4.88,1.12-6.14.76-.49,1.45-.17,2.24.16a15.4,15.4,0,0,0,3.46,1.06,16,16,0,0,0,13.27-3.83c1.92-1.72-.92-4.54-2.83-2.83a11.65,11.65,0,0,1-6.06,2.8,13.06,13.06,0,0,1-6.94-1.13,5.83,5.83,0,0,0-7.13,2.21,8.84,8.84,0,0,0-1.32,5.93,91,91,0,0,0-11.59-15.35l1.08.08a12.45,12.45,0,0,0,5.36-.57,4.44,4.44,0,0,0,2.74-3.24,4.33,4.33,0,0,0,3.87-2.46,3.79,3.79,0,0,0-.21-3.65l4.18,1.21c2.48.71,3.54-3.15,1.06-3.86l-6.24-1.8c-1-.29-2.2-.87-3.21-.28a3,3,0,0,0-1.42,2.26c-.22,1.86.91,3.06,2.06,4.31l.12.15a.26.26,0,0,1-.16.13,5.18,5.18,0,0,1-2.57-.35c-2.33-.72-3.39,2.68-1.43,3.7-.5.53-1.67.47-2.31.48a28.19,28.19,0,0,1-7-.79,1.88,1.88,0,0,0-.74,0,68,68,0,0,0-10.89-8.09,3.86,3.86,0,0,1,2.37-2.47c1.31-.42,2.1-2.33.88-3.35a1.26,1.26,0,0,1-.24-.22s0-.07-.1-.16c.16.2,0-.26,0,0a2,2,0,0,1,0-.42h0c0-.37.09-.11.13-.39a.14.14,0,0,1,0-.06,2.7,2.7,0,0,1,.61-.27,3.53,3.53,0,0,0,1.88-1.52,3.33,3.33,0,0,0-.51-3.7c2.56.09,5.12.08,7.67-.05s2.58-4.13,0-4a90.54,90.54,0,0,1-13.58-.33c-1.65-.16-2.74,2.36-1.42,3.42S481.85,243,483,244a4,4,0,0,0-1.12.82,5,5,0,0,0-1.11,4.63,8.14,8.14,0,0,0-2.58,3.24,48.27,48.27,0,0,0-16.53-5.06,3,3,0,0,0,.06-.74,2.77,2.77,0,0,0-1.42-2.32,3.72,3.72,0,0,0-1.38-.4A5.86,5.86,0,0,0,458,244s0-.07,0-.1a2.18,2.18,0,0,1,0-.24s0,0,0-.06.1-.39.06-.22.17-.18,0-.06a3.85,3.85,0,0,1,.5-.44,3.07,3.07,0,0,1,.66-.32,13.43,13.43,0,0,1,2.25-.55,2,2,0,0,0,.88-3.35L459.22,236a15,15,0,0,1,6.46-3.37c2.5-.62,1.44-4.47-1.06-3.86a18.93,18.93,0,0,0-9.76,5.93,2,2,0,0,0,0,2.83l2.11,1.78a5.12,5.12,0,0,0-3,4.08,4.41,4.41,0,0,0,1.25,3.65,2.65,2.65,0,0,0,.42.33,37.24,37.24,0,0,0-18.29,5.2,14.4,14.4,0,0,0-.22-3.88c-.29-1.7-1.57-5.23.36-6.41,1.36-.84,1.29-3.32-.48-3.66-1.27-.24-1.46-1.91-1-3,.92-2,3.77-2.73,5.67-3.33,2.45-.78,1.4-4.64-1.06-3.86-3.4,1.07-7.5,2.64-8.58,6.43a6.68,6.68,0,0,0,1.32,6.18,9.47,9.47,0,0,0-.7,5.7c.3,2.15,1.77,5.54-.28,7.2a2,2,0,0,0-.3,2.42l-.51.42a3.07,3.07,0,0,0-1.36-.05,96.86,96.86,0,0,0-16,3.92c-.08-.22-.19-.57-.19-.57a12.34,12.34,0,0,1,.06-1.7,5,5,0,0,0-1.84-4.51c-.95-.69-2.31-.81-3.18-1.26l-.11,0,.09-.15a2.52,2.52,0,0,1,.34-.5,17.85,17.85,0,0,0,2.35-3.07,5.13,5.13,0,0,0,.07-4.61c-1.68-3.58-5.77-4-9.25-3.74-2.55.15-2.57,4.15,0,4,1.51-.09,3.41-.35,4.76.5,1,.61,1.21,1.46.74,2.23-1.2,2-3.89,3.73-3,6.52a4.63,4.63,0,0,0,3.36,2.86,4.93,4.93,0,0,1,1.39.44c.29.22.27.56.27,1a10.19,10.19,0,0,0,.39,4.05,36,36,0,0,0-13.32,9.61c-.38.46-.73.93-1.08,1.4a2.06,2.06,0,0,0-2.8-2.39c0-.06-.09-.09,0,0h0c-.12-.14-.4-.32-.45-.46a5.76,5.76,0,0,1,.21-2.6c.48-2.08.79-4.43-.51-6.3-1.57-2.25-4.21-2-6.64-2l-7.88.05c-2.57,0-2.58,4,0,4l8-.05a9.48,9.48,0,0,1,3,.08.37.37,0,0,1,.18.12,2.68,2.68,0,0,0,.16.34,2.65,2.65,0,0,1,.11.88,3.39,3.39,0,0,1-.14,1.11c-.13.63-.29,1.24-.4,1.87a7,7,0,0,0,.13,3.81c.94,2.42,3.66,4,6.1,2.67a2.29,2.29,0,0,0,.23-.16,31.08,31.08,0,0,0-1.93,3.29,1.91,1.91,0,0,0-1.25.55L388,282.1c-.66.62-1.31,1.25-2,1.88-.32.31-1.29,1.56-1.8,1.59-1,.06-1.44-1.88-1.64-2.59a10.42,10.42,0,0,0-2.06-4.35,2,2,0,0,0-2.83,0l-17.21,13.64a2,2,0,0,0,0,2.83,2,2,0,0,0,2.82,0L378.58,283a20.73,20.73,0,0,0,1.18,3.62,5.23,5.23,0,0,0,4.64,2.92c2.26-.12,3.87-2.16,5.39-3.62l1-1a49,49,0,0,0-.27,19.72,18.39,18.39,0,0,0-6.18-1.76,5.7,5.7,0,0,0-5.18,2.22,5.18,5.18,0,0,0-.71,3.17,6.43,6.43,0,0,0-2.4-1.61A5.22,5.22,0,0,0,370.3,308c-1.59,1.85-1.32,5.07-1.52,7.36-.27,2.88-.53,5.77-.79,8.65a2,2,0,0,0,4,0q.54-6,1.09-12c.09-1,.15-1.93,1.46-1.55s2.15,2.12,2.79,3.26a2.05,2.05,0,0,0,2.26.92c2.07-.49,3.06-2.58,3-4.58,0-.7-.5-2-.12-2.66.27-.45,1.09-.43,1.54-.43a14.29,14.29,0,0,1,5.49,1.67c.71.32,1.4.68,2.09,1.06A72.75,72.75,0,0,0,429,355.77a70.38,70.38,0,0,0-29,24.35,71.57,71.57,0,0,0-9.36,19.13,74.72,74.72,0,0,0-3.1,21,12.15,12.15,0,0,1-.34,3.09,2.16,2.16,0,0,0-1.4,2.07,10.16,10.16,0,0,1-4.45,1.16c-4.24.44-8.69,0-12.62,2-3.23,1.6-6.3,5-6.11,8.8.2,4.11,3.59,6.62,7.12,8,6.47,2.49,14.48,1.28,18.75-4.49a18.53,18.53,0,0,1,3-3.78,1.84,1.84,0,0,1,.92-.44.81.81,0,0,1,.76.4,7,7,0,0,1,.65,2.95,21.81,21.81,0,0,0,.59,4.19,6,6,0,0,0,7.64,4.31,8.85,8.85,0,0,0,6-8.1,13.79,13.79,0,0,0-3.65-9.81c-2.63-3-6.51-4.72-10.26-5.85-1-.3-2-.55-3-.79a13.41,13.41,0,0,0,.27-1.54c.39-3.21.15-6.48.48-9.71a60.33,60.33,0,0,1,1.75-9.42,67,67,0,0,1,7.65-17.78,68.19,68.19,0,0,1,13.94-16.34,1.26,1.26,0,0,0,.61-.37,2.22,2.22,0,0,0,.32-.14,31.68,31.68,0,0,1,3.75-1.94,9.13,9.13,0,0,1,3.85-.66,3.45,3.45,0,0,1,.75.08,3.13,3.13,0,0,1,.52.16h0l.09,0,.24.15.23.22s.18.36.17.3c.35.86.5,1.76.8,2.63a1.49,1.49,0,0,0,.05.36q0,67.72,3.49,135.39a2.15,2.15,0,0,0-.32.35,4.79,4.79,0,0,1-.12,1.77,4.48,4.48,0,0,1-.24,1.21,4.94,4.94,0,0,1-.2,1.48c.23,7.88,1.81,16.67,9.62,20.32a17.94,17.94,0,0,0,8,1.48c.21.1.41.21.61.32q1,.58,1.95,1.26l.21.16.05,0h0l.41.33.3.27,1.92,48.67c-6.89-3.26-12.46-10.41-20.89-7.77-7.8,2.44-8.08,11.51-3.28,17s14,10.18,21.52,8.16,11.1-9.88,8.88-17a3.25,3.25,0,0,0-.24-.57q-1-24.28-1.91-48.56l.68-1.58a7.18,7.18,0,0,1,.67-1.29v0l.09-.09.2-.19.22-.15.34-.18.06,0c5.69-.65,11.39-1.13,17.13-1.31,3.23-.1,6.46,0,9.68,0,0,0,.06.07.1.09,1,.55,2.06,1.08,3.07,1.65l.43.25a450,450,0,0,0,5,50.63c-6.65-1.43-13.39-6.33-20-3.11-5.05,2.46-5.56,9-2.82,13.46,7.37,11.93,28.39,5.59,29.93-7.46a2.35,2.35,0,0,0-1-2.39,437.92,437.92,0,0,1-5.13-50.22l1.19-.86a16.63,16.63,0,0,1,2.42-1.56l1-.52a14.59,14.59,0,0,0,9-4.13c7.1-7.48,2.2-17-.09-25.64a33.87,33.87,0,0,0-1.21-4.76,15.64,15.64,0,0,1-1.34-5.8A1023.47,1023.47,0,0,0,505,357.52a6.43,6.43,0,0,1,.46-1.84,2.35,2.35,0,0,1,1.8-1.54,6.22,6.22,0,0,1,3.06.28l3.91,1.33.09,0c5.62,4,10.07,9.67,13.5,15.58a90.78,90.78,0,0,1,11.6,35.5,92,92,0,0,1,.54,9.82c0,3-.51,6.24,1.57,8.72,1.71,2.06,4.53,3,6.78,4.36a23.33,23.33,0,0,1,6.57,5.41c2.92,3.71,4.22,10.21-.49,13.11a5.11,5.11,0,0,1-5.6.21c-1.72-1.16-2.57-3.27-3.28-5.13-1-2.54-1.8-5.19-3.46-7.39A15.92,15.92,0,0,0,535.8,431a17,17,0,0,0-13.37-.32,6,6,0,0,1,3-5c3.44-2.11,8.08-1.12,11.78-.42,2.52.48,3.6-3.37,1.07-3.85-5.13-1-11.26-2-15.75,1.43-3.48,2.66-5.52,7.75-3,11.73a2,2,0,0,0,2.74.72,12.67,12.67,0,0,1,12.92-.08,11.59,11.59,0,0,1,4.57,4.69c1.14,2.2,1.79,4.62,2.81,6.87a11.15,11.15,0,0,0,4.71,5.51,8.86,8.86,0,0,0,7.43.27C560.29,450.29,562.49,444.36,561,438.76ZM403.66,437.5c.69,2.51.27,5.88-2.43,7S398,443,397.83,441c-.23-2.39-.23-5.24-2.14-7-2.48-2.29-5.86-1.19-7.88,1.08s-3.18,5-6,6.39a13.17,13.17,0,0,1-8.53.81c-2.47-.54-6.42-1.87-6.68-4.87-.29-3.19,3.57-5.44,6.2-6,4-.9,8.19-.32,12.19-1.35a8.71,8.71,0,0,0,4.3-2.37C395.17,429,401.92,431.1,403.66,437.5Zm79.77,155.31c-3.36,0-10.78-3.86-7-7.87,2.46-2.59,8.47.61,11.35,1.65a33.48,33.48,0,0,0,6,1.66C491.44,591.17,486.73,592.81,483.43,592.81Zm-38.16,2.09c-4.41-.2-10.62-3.53-13.1-7.19-2.24-3.32-.88-7.17,3.47-6.92,2.6.15,4.93,1.77,7,3.21,3.33,2.3,6.37,4.6,10.18,5.72A7.22,7.22,0,0,1,445.27,594.9ZM446.88,526c-10.44.11-11.69-9.49-11.73-17.76a3.22,3.22,0,0,0,.32-.32,2969.24,2969.24,0,0,0,.56-3.44q-1-18.45-1.65-36.9c10.82,1.59,21.54.32,32.25-1.05q-.19,28.77,1.14,57.52C460.79,524.81,453.83,526,446.88,526Zm21.8-65.33a4.29,4.29,0,0,1-1.28-.2l-.18.19c-10.73,1.43-21.45,2.75-32.23,1a3.19,3.19,0,0,0-.81,0q-1.77-50.31-1.59-100.67c.24-.91.48-1.81.74-2.72l.52-.2a69.16,69.16,0,0,0,7.64,2.7c1,.29,2,.55,3.08.8A152.77,152.77,0,0,0,441.38,391c0,3.93.2,8,1.66,11.73a17.77,17.77,0,0,0,8.48,9.07c3.84,2.12,8,4.34,12.39,5.05a14.14,14.14,0,0,0,12.25-3.62c6.15-5.6,8.57-14.13,9.28-22.16.91-10.31-1.11-20.64-.16-30.94a56.85,56.85,0,0,0,13.43-6.35,1028.88,1028.88,0,0,1,2.59,105.79,3.15,3.15,0,0,0-1.34-.48c-9.36-1.23-18.68-.26-28,.95a4.15,4.15,0,0,1-1.72.35h0A4.07,4.07,0,0,1,468.68,460.69Zm13-74.57c-.06,7.25-1.21,14.88-5.43,21-2,2.91-4.93,5.71-8.63,6-4,.33-7.95-1.58-11.44-3.35s-6.8-3.44-8.68-6.85c-1.72-3.11-2-6.83-2.1-10.33a138.75,138.75,0,0,1,3.05-30c0-.07,0-.12,0-.19a77.66,77.66,0,0,0,32.72-1C480.59,369.59,481.74,377.85,481.67,386.12Zm23.93,122.6c1.14,4.17,1.59,8.26-.45,11.45-2.72,4.27-8.69,3.63-13.06,3.46-5.45-.23-10.89-.32-16.33-.15-.67,0-1.34.07-2,.11q-1.32-28.88-1.11-57.79c9.07-1.1,18.16-1.9,27.32-.7a3,3,0,0,0,1.17-.08q-.33,10-.86,20.06a56.24,56.24,0,0,0,.79,7.89C502,498.22,505.18,503.38,505.6,508.72ZM455.14,357.31a66.73,66.73,0,0,1-56.92-46.14,2,2,0,0,0-.75-2.49c-2.71-9.82-3.13-20.73,1.88-29.49,3.91-6.84,10.54-10.71,17.8-13.17a2.34,2.34,0,0,0-.41.54l.3-.13a8.53,8.53,0,0,1,3.28-1.09l.09,0a3.5,3.5,0,0,1,2-.25L423,265c2-.58,4.14-.67,6.18-1.16l.36-.1,2.07-.66c.87-.32,1.71-.65,2.54-1a11.81,11.81,0,0,0,1.23-.8c3.53-2.7,8.19-6.55,12.9-6.83,10.3-2.72,21-.18,30,5.06l.08.18a1.71,1.71,0,0,0,1.82,1c.38.24.76.48,1.13.73,19.6,13.17,36.17,39.34,30.73,63.59C506.37,350.22,478.38,359.62,455.14,357.31Z" transform="translate(-54.7 -162.37)"/><path class="cls-3" d="M442.75,291.58c-1.83-2.24-4.06-4.37-7.11-4.56a6.28,6.28,0,0,0-6.4,4,6,6,0,0,0,3.4,7.14c3,1.46,6.29.29,9-1.3a2.84,2.84,0,0,0,1.08-1.07A3,3,0,0,0,442.75,291.58Z" transform="translate(-54.7 -162.37)"/><path class="cls-3" d="M481.17,286.33a2.77,2.77,0,0,0-1.94.14,3,3,0,0,0-1.35-3.4c-3.78-1.85-7.62,1.49-7.24,5.49.41,4.45,5.15,5.62,8.85,5.86a3.07,3.07,0,0,0,2.89-2.2c.3-.73.59-1.47.88-2.2A3,3,0,0,0,481.17,286.33Z" transform="translate(-54.7 -162.37)"/><path class="cls-3" d="M483.36,320.71c-3.56,5.12-4.66,12.75-10.68,15.77-3.22,1.61-7.18,2-10.73,2.15a44.89,44.89,0,0,1-23.46-5.42c-2.26-1.23-4.28,2.22-2,3.45a49.16,49.16,0,0,0,24.18,6,36.06,36.06,0,0,0,12.24-1.94,16.27,16.27,0,0,0,8.33-7.29c2-3.48,3.27-7.38,5.58-10.7C488.29,320.61,484.82,318.61,483.36,320.71Z" transform="translate(-54.7 -162.37)"/></svg>