<svg id="Layer_1" data-name="Layer 1" xmlns="http://www.w3.org/2000/svg" viewBox="0 0 409.85 292.48"><defs><style>.cls-1{fill:#231f20;}.cls-2,.cls-3,.cls-4{fill:none;stroke:#231f20;stroke-miterlimit:10;}.cls-2{stroke-width:4px;}.cls-3{stroke-width:3px;}</style></defs><path class="cls-1" d="M347.71,361l0,0h0Z" transform="translate(-51.81 -266.21)"/><path class="cls-1" d="M460,450.45c-2.29-9.18-7.61-20.14-17.91-22.06a2.86,2.86,0,0,0-1.88.25c-13.54-5.62-27.09-11.44-39.42-19.44a108,108,0,0,1-10.34-7.59h0a61.42,61.42,0,0,0-9.29-32.12c-.63-1-2.5-1-2.74.36a38.24,38.24,0,0,1-4.9,12.11,130.55,130.55,0,0,0-20-16.66l-.36-.23c-1-.86-2-1.68-3-2.47-.46-.35-.93-.71-1.43-1-.23-.15-.48-.28-.71-.43l-.23-.15c.07.06.11.11,0,0h0l-.05,0,.05,0-.16-.15a1.19,1.19,0,0,0-.39-.27l-.81-.63c-1.35-1-2.69-2-4.13-2.92a49.2,49.2,0,0,0-9.35-4.31,3.24,3.24,0,0,0-1.12-.75c-22.92-9-47.12-16.68-71.67-20.8a74.94,74.94,0,0,0,6.23,6.12,3.67,3.67,0,0,1,1,1.31c21.5,4.29,42.67,11.19,62.87,19.15a1.67,1.67,0,0,0,.18,0c0,.07,0,.14,0,.21A140.75,140.75,0,0,1,361,377.15c9,7.47,16.42,16.21,23.23,25.63l.18.25a1.88,1.88,0,0,1,.43.46,1.67,1.67,0,0,1,.33.32,2.07,2.07,0,0,1,.47.41l.13.1a2.08,2.08,0,0,1,.59.46,2.25,2.25,0,0,1,.47.31c12.37,10.31,26.77,17.56,41.47,23.91q3.39,1.47,6.79,2.89a40.68,40.68,0,0,0,1,51.05,21.8,21.8,0,0,0,2,2.15,7.12,7.12,0,0,1-1.46,0h-.16a3.36,3.36,0,0,0-1.59-.14,50.6,50.6,0,0,0-32.21,18.88,53.69,53.69,0,0,0-5.44,8.67,68,68,0,0,1-5.14,9.16,34.77,34.77,0,0,1-13.81,10.84,45.48,45.48,0,0,1-18.22,3.93,1.25,1.25,0,0,1-.45.08l-.2,0a1.37,1.37,0,0,1-.42.07l-.15,0a1.18,1.18,0,0,1-.39.07l-.18,0a1,1,0,0,1-.31,0,1.58,1.58,0,0,1-.32,0,16.86,16.86,0,0,1-1.88,0,10.79,10.79,0,0,1-1.95-.3,18.47,18.47,0,0,1-2.05-.6l-.5-.19,0,0c.12-.34.22-.68.33-1a51.17,51.17,0,0,0,3.31-8.51,2.32,2.32,0,0,0-.26-1.88,20.83,20.83,0,0,1-1.44,3.11c-1.54,2.79-3,5.61-4.73,8.29-2.23,3.43-4.26,7.26-7,10.42a3.52,3.52,0,0,1-.66,1,3.18,3.18,0,0,1-.73.91,3.15,3.15,0,0,1-.77.73,13.72,13.72,0,0,1-3,3.21,9.24,9.24,0,0,1-2.73,1.42,3.74,3.74,0,0,1-1.09.51,6,6,0,0,1-1.59.14,22.2,22.2,0,0,1-2.45-.1,11.33,11.33,0,0,1-6-2.07l-.23-.06a26,26,0,0,1-7.71-7.37,36.92,36.92,0,0,1-3.45-4.62,24.5,24.5,0,0,1-4.09-7.9c-.7-1.34-1.35-2.7-1.92-4.11a2.57,2.57,0,0,0-3.07-1.74,2.39,2.39,0,0,0-.44.18l-.65.08a1.76,1.76,0,0,0-1.09.12q-7.12.84-14.29,1.19A270.83,270.83,0,0,1,220.16,516q-8-2.44-15.89-5.38l-.87-.42a1.18,1.18,0,0,0-.13-.18,3.13,3.13,0,0,1-.45-.22,3.36,3.36,0,0,1-1.11-.45h0L199,508a8,8,0,0,0-.84-.59,3.81,3.81,0,0,1-.4-.23l-.07,0a2,2,0,0,0-.67-.17q-4.41-2.34-8.69-4.88a1.5,1.5,0,0,0-1.52,2.59c3.12,1.87,6.31,3.63,9.53,5.31a1.51,1.51,0,0,0,1,1.16l.65.25a2.73,2.73,0,0,1,.26,1.09,2.51,2.51,0,0,1,.16.72,2.45,2.45,0,0,1,.24.81,3,3,0,0,1,.2.66,2.58,2.58,0,0,1,.28,1.52,2.28,2.28,0,0,1,.08.78,2.63,2.63,0,0,1,.06,1.15,2.9,2.9,0,0,1,0,.72,2.65,2.65,0,0,1-.15,1.5,2.59,2.59,0,0,1-.3,1.45,28.09,28.09,0,0,1-1.4,5.7,32.09,32.09,0,0,1-2.91,7,23.28,23.28,0,0,1-5,5,9.47,9.47,0,0,1-5.92,2.37,13,13,0,0,1-6.57-2,30.62,30.62,0,0,1-5.75-4.58c-.35-.33-.68-.67-1-1-.12-.21-.25-.41-.35-.63a1.38,1.38,0,0,0-.38-.45,2.67,2.67,0,0,0-.37-1c-1.19-1.87-2.35-3.76-3.52-5.65-.64-1.45-1.3-2.89-2.07-4.28a56.66,56.66,0,0,0-4.59-6.87,398.62,398.62,0,0,1-28.19-58c-9.11-23.83-14.32-50.12-6-74.95a64.17,64.17,0,0,1,14.36-24.12,1.22,1.22,0,0,0,.44-.33,1.33,1.33,0,0,0,.67-.42,1.38,1.38,0,0,0,.37-.35l.24-.14a115.2,115.2,0,0,1,11.09-7c1.74-1,3.48-2,5.25-3,1.57-.85,3.25-1.48,4.86-2.25a3,3,0,0,0,.88-.2,159.16,159.16,0,0,1,47.62-10.4,5.54,5.54,0,0,1,0-2.56,5.45,5.45,0,0,1,.28-3.5,164.36,164.36,0,0,0-44.48,8.81,83.72,83.72,0,0,0-9.05,3.18,64.61,64.61,0,0,0-26.92,20.67,1.36,1.36,0,0,0-.31.24c-2.58,2.63-5.11,5.32-7.75,7.89a30,30,0,0,1-8.85,5.77,43.7,43.7,0,0,1-4.85,1.93,20.8,20.8,0,0,1-7.67.31,1.49,1.49,0,0,0-.77.09,1.53,1.53,0,0,0-.54-.1h-.11c-.06,0-.09-.06-.15-.07-1.81-.53-3.58-1.12-5.34-1.78A12.4,12.4,0,0,0,95.43,372a25.8,25.8,0,0,0,.67-7.22,27.52,27.52,0,0,0-1.54-9.41c-1.94-4.88-6.5-8.82-12-7.82a9.9,9.9,0,0,0-7.94,7.78,1.43,1.43,0,0,0-.3.68c-.67,4.23.84,9.07,3,12.74,2,3.44,5.46,5.84,8.78,8-.41.05-.83.09-1.24.12a40.88,40.88,0,0,1-30.41-10.52c-1.43-1.31-3.55.81-2.13,2.12A44,44,0,0,0,83.61,380a19.83,19.83,0,0,0,6.17-1,41.53,41.53,0,0,0,10.68,3.28,32.27,32.27,0,0,0,9.54.62,9.55,9.55,0,0,1,5.77,2.71,7.7,7.7,0,0,1,1.43,2.18v4.56c-2.61,14.46-1.59,29.72,1.77,43.95,3.32,14,8.72,27.45,14.67,40.54q9.15,20.18,20.15,39.46c2.42,4.24,4.93,8.43,7.48,12.61l.46,1a4.08,4.08,0,0,1,.19.42c-.18-.44,0,0,0,.08s.11.24.17.35c.13.27.27.53.41.78.26.46.54.91.82,1.35.59.94,1.19,1.87,1.75,2.82.07.12.22.47.36.67,0,0,0,0,.11.09l.25.27a18.25,18.25,0,0,1,1.28,1.51c.15.2.28.39.41.59l.18.24h0c.28.31.55.6.85.88a1,1,0,0,0,.13.09,13.17,13.17,0,0,0,3.28,2.78,18.39,18.39,0,0,0,5.07,2.63c4.8,2,10.18,1.91,14.57-1.27.87-.63,1.73-1.33,2.57-2.05.15-.12.29-.25.43-.38s.37-.32.54-.49l.32-.29.23-.25a25.24,25.24,0,0,0,2.2-2.44,28,28,0,0,0,3.81-7.89c.28-.74.54-1.5.78-2.25.18-.91.39-1.81.59-2.71s.45-2,.62-3c0-.07.08-.56.09-.59s0-.3.05-.45c0-.55.08-1.1.08-1.65a2.87,2.87,0,0,1,.05-.41,16.33,16.33,0,0,0-.34-2.62,1.76,1.76,0,0,0,.13-1,4.35,4.35,0,0,0-.1-.52c0-.51,0-1,0-1.52A204.2,204.2,0,0,0,276.22,533a199.16,199.16,0,0,0,25.27.32c2.72,6.25,6.12,12.42,11.33,16.63a26.42,26.42,0,0,0,7.93,6.42c4.91,2.46,10.73,3.21,15.85,1a14.45,14.45,0,0,0,4.81-3.5,10.61,10.61,0,0,0,1.59-1.62,39.89,39.89,0,0,0,4.36-7.35,27.36,27.36,0,0,0,3.89,5.08c2.3,2.55,5.34,5,9,4.74a10.58,10.58,0,0,0,8.23-5.7,20.9,20.9,0,0,0,2.15-8.74A43.93,43.93,0,0,0,393,528.32a37.62,37.62,0,0,0,5.88-8c1.8-3.27,3.28-6.71,5.28-9.88a44.74,44.74,0,0,1,12.67-13.08,46.1,46.1,0,0,1,18.88-7.47l.08,0a2.41,2.41,0,0,1,.71,0h.12l1.23.06a24.19,24.19,0,0,1,3.81-.73,8.94,8.94,0,0,0,1-.53l.35-.26a13.11,13.11,0,0,0,5.17,1.17,10.81,10.81,0,0,0,6.74-2.15,12.94,12.94,0,0,0,4-6.08,50.91,50.91,0,0,0,2.68-15.28A56.8,56.8,0,0,0,460,450.45Zm-78.69-59.76c-1.79-2.23-3.68-4.38-5.62-6.47a51.83,51.83,0,0,0,4.72-10,58.29,58.29,0,0,1,6.94,24.46C385.36,396,383.37,393.29,381.28,390.69ZM92.92,369.31a11.33,11.33,0,0,1-1.59,4.78q-3.49-1.47-6.84-3.29l-.16-.08-.07,0a1.17,1.17,0,0,0-.42-.29,20.78,20.78,0,0,1-5-6.55c-1.88-4-2.57-9.59,1.67-12.28,4-2.51,8.3-.5,10.48,3.31a17.69,17.69,0,0,1,2,7.63A33.6,33.6,0,0,1,92.92,369.31Zm273,174a32.44,32.44,0,0,1-1.23,4.08c-.91,2.33-2.73,4-5.37,3.76s-4.08-2.44-5.71-4.31c-1.77-2-4.07-4.14-4-7.06,0,0,0,0,0-.07.2-.49.41-1,.6-1.48a18.13,18.13,0,0,0,6,1.33v0a1.27,1.27,0,0,1,.53.17,32.59,32.59,0,0,0,6.37.75,2.72,2.72,0,0,1,.42,0l.37,0,.36,0h.05a2.36,2.36,0,0,1,.37,0,3.47,3.47,0,0,1,.42,0l.46,0h.77A9.46,9.46,0,0,1,366,543.33Zm89.6-68.52c-.7,3.27-1.5,8.38-5.26,9.51s-7.14-1.11-9.59-3.69a35.2,35.2,0,0,1-9.12-22.48,36.2,36.2,0,0,1,8.26-24.27l.08,0a2.14,2.14,0,0,1,1.59-.64,2.37,2.37,0,0,1,.61.08,3.11,3.11,0,0,1,.33,0,2.1,2.1,0,0,1,1.39.48,30,30,0,0,1,2.23,1.41,2,2,0,0,1,1,.88,2,2,0,0,1,.67.73,2.06,2.06,0,0,1,.84,1.07,2.14,2.14,0,0,1,.5.76,29.61,29.61,0,0,1,5,9.45A51.45,51.45,0,0,1,455.56,474.81Z" transform="translate(-51.81 -266.21)"/><path class="cls-1" d="M447.09,470.4c.05-.11.09-.23.14-.34l0-.08a1.83,1.83,0,0,0,.07-.23,1.42,1.42,0,0,0,0-.2v-.07a10.16,10.16,0,0,0,0-1.46q-.92-7.11-2.45-14.11c-.12-.3-.24-.61-.34-.93,0-.14-.1-.29-.13-.43s0,0,0,0a1.42,1.42,0,0,0-.08-.18c-.24-.55-.47-1.11-.74-1.65a8.3,8.3,0,0,0-.49-.81l0,0a1.34,1.34,0,0,1-.11-.14l-.42-.54,0,0-.24-.17-.23-.19a1.35,1.35,0,0,1-.43-.12h-.16c-1.2-1.64-4.52-1.15-4.57,1.46a54.18,54.18,0,0,0,1.15,13.08c.82,3.57,2.66,6.89,6.26,8.19A2.54,2.54,0,0,0,447.09,470.4Z" transform="translate(-51.81 -266.21)"/><path class="cls-1" d="M454.14,470c1.55-1.18,1.74-3.73,1.75-5.59a36.92,36.92,0,0,0-.29-4.34v0c-.14-.88-.31-1.75-.5-2.61h0a46.83,46.83,0,0,0-2.06-6.94,3.15,3.15,0,0,0-.64-1c0-.1,0-.2,0-.3s0-.13,0-.21a.54.54,0,0,1,0-.08l0-.07a2.85,2.85,0,0,0-.12-.31.43.43,0,0,0,0-.05l0,0,0-.07c-.05-.1-.1-.21-.16-.31a6.11,6.11,0,0,0-.36-.61,1.3,1.3,0,0,0-.1-.15l0,0a1.64,1.64,0,0,1-.21-.25l-.25-.25-.11-.1-.05,0c-.08,0-.17-.12-.25-.17l-.26-.15-.18-.12a2.38,2.38,0,0,0-2.8,2.38,93.18,93.18,0,0,0,.91,13,20.07,20.07,0,0,0,1.27,5.85C450.38,469.15,452.21,470.51,454.14,470Z" transform="translate(-51.81 -266.21)"/><path class="cls-1" d="M367.86,426.18a22.41,22.41,0,0,0-2.64-3.7,29.29,29.29,0,0,0-3.05-3.15,2.54,2.54,0,0,0-3.54,0,2.15,2.15,0,0,0-.18.24c-2.87,0-4.83,2.8-4.95,5.47s1.89,5,3.89,6.56c2.22,1.76,4.92,3.69,7.92,2.66a5,5,0,0,0,3.35-3.39A6.6,6.6,0,0,0,367.86,426.18Z" transform="translate(-51.81 -266.21)"/><path class="cls-1" d="M376.72,409a2.51,2.51,0,0,0-2.5,2.5,2,2,0,0,0,.09.49,4.76,4.76,0,0,0-.28.71,1.55,1.55,0,0,0-.07.31,8.85,8.85,0,0,0-.12.9,5.92,5.92,0,0,0,.13,1.26,4.84,4.84,0,0,0,1.11,2.14,3.68,3.68,0,0,0,.65.59,5.83,5.83,0,0,0,.88,1.74,7.11,7.11,0,0,0,2.08,2,6.81,6.81,0,0,0,2.77.87,2.44,2.44,0,0,0,2.16-1.24C386.51,416.14,382.54,409.2,376.72,409Z" transform="translate(-51.81 -266.21)"/><path class="cls-1" d="M363.1,486.89a18.67,18.67,0,0,1-10.52-3.3,11,11,0,0,1-4.42-7.6c.12-.06.24-.14.37-.2l.41-.2.1,0,.1,0a12,12,0,0,1,1.74-.53l.45-.09.1,0h.11c.3,0,.6-.05.91-.06a1.5,1.5,0,0,0,0-3,13.16,13.16,0,0,0-12.24,10.07,1.52,1.52,0,0,0,1.05,1.84,1.5,1.5,0,0,0,1.84-1,8.5,8.5,0,0,1,1.24-3.08c.16-.26.34-.51.52-.76s-.07.06.09-.12.19-.23.29-.35l.25-.24a14.19,14.19,0,0,0,5.12,7.72c3.56,2.77,8.06,3.87,12.49,4.06C365,490,365,487,363.1,486.89Z" transform="translate(-51.81 -266.21)"/><path class="cls-1" d="M327.5,423.18a35.66,35.66,0,0,0-12.77-3.67c-4.75-.43-9.51.1-14.24.39-7.51.45-16.22.19-21.68-5.78a1.51,1.51,0,0,0-2.56,1.06,54.21,54.21,0,0,0,24.31,40.45,51,51,0,0,0,12.36,5.88c1.85.58,2.64-2.31.8-2.9C299.16,454,287.25,442.09,282,427.78a49.32,49.32,0,0,1-2.34-8.93c5.24,3.62,12.1,4.39,18.38,4.17,4.83-.18,9.65-.81,14.49-.64A32.45,32.45,0,0,1,326,425.77C327.71,426.64,329.23,424.05,327.5,423.18Z" transform="translate(-51.81 -266.21)"/><path class="cls-1" d="M316.81,428.36a1.54,1.54,0,0,0-1.85-1.05,24.12,24.12,0,0,1-10.27-.83c-2.9-.82-6.18-1.47-8.63.79a7.69,7.69,0,0,0-1.91,7.16c.64,3.05,2.89,5.48,5,7.68,1.32,1.41,3.44-.72,2.12-2.12-1.69-1.8-3.6-3.75-4.16-6.23-.38-1.69.06-4.08,1.84-4.84a5.91,5.91,0,0,1,3.67.09c1.36.35,2.68.79,4.06,1.05a26.6,26.6,0,0,0,9.12.14A1.51,1.51,0,0,0,316.81,428.36Z" transform="translate(-51.81 -266.21)"/><path class="cls-1" d="M238.31,451.49c-1.85-3.67-8-.51-6.17,3.13,2.55,5.07,3.72,11.6,0,16.47-3.33,4.37-10,6.39-15,3-4.79-3.26-7.35-9.42-8.66-14.43-1.71-6.53.57-11.83,7.35-15.15,9.12-4.46,25.89-5.08,28.29-16.12,2-9.48-9.92-17.54-19.43-18.81-11.51-1.54-23.57,6.36-22,17.14.56,3.94,7.71,3.93,7.14-.06-.7-4.95,2.91-9.5,8.47-10.78,6.63-1.52,14.79,2.15,17.86,7.38,4.12,7-6.44,10-12.28,11.78s-11.6,3.4-16.28,6.92c-9.9,7.45-7.21,19.17-2.27,28.32,4.64,8.6,14.52,15,25.37,10.12C243.15,474.72,243.33,461.47,238.31,451.49Z" transform="translate(-51.81 -266.21)"/><line class="cls-2" x1="154.65" y1="132.44" x2="170.07" y2="231.93"/><line class="cls-2" x1="168.92" y1="133.56" x2="183" y2="231.42"/><path class="cls-1" d="M425.24,472.65c-3.82-5.6-3.72-12.6-3.36-19.1,0-.64-1-.64-1,0-.37,6.67-.42,13.86,3.5,19.61C424.74,473.69,425.6,473.19,425.24,472.65Z" transform="translate(-51.81 -266.21)"/><path class="cls-1" d="M417.93,468.59A16.21,16.21,0,0,1,416.48,457c.15-.62-.81-.89-1-.27a17.35,17.35,0,0,0,1.55,12.34C417.37,469.66,418.23,469.15,417.93,468.59Z" transform="translate(-51.81 -266.21)"/><path class="cls-1" d="M412.7,470.49c-1.55-2.62-3.16-5.64-2.27-8.77a.5.5,0,0,0-1-.27c-1,3.41.68,6.68,2.37,9.54A.5.5,0,0,0,412.7,470.49Z" transform="translate(-51.81 -266.21)"/><path class="cls-3" d="M225.48,356.49c-17.13-11-24-33.23,2.1-38.56,17.26-2.13,33.36,6.87,35.68,18.84" transform="translate(-51.81 -266.21)"/><path class="cls-3" d="M263.49,338.09c-.78-5.37-4-11.62-10.46-16.64-18.26-14.27-48-11-44.65,14,2.35,17.56,22.49,26,36.35,24.18,8.85-1.14,15.65-6.45,17.94-12.83a17.83,17.83,0,0,0,.94-7.68A3.45,3.45,0,0,1,263.49,338.09Z" transform="translate(-51.81 -266.21)"/><path class="cls-1" d="M292.11,368.51A156.56,156.56,0,0,0,258,354.74a1.4,1.4,0,0,0-1-.4l-.18,0a1.55,1.55,0,0,0-.31,0,1.54,1.54,0,0,0-.05,3.07c3.36.89,6.7,1.88,10,3a151.3,151.3,0,0,1,22.69,9.9h0a1.07,1.07,0,0,1,.64.42.88.88,0,0,1-.09,1,11.72,11.72,0,0,0-.73,1.35c-.13.26-.27.57-.58.66a.69.69,0,0,1-.45,0,.88.88,0,0,1-.19-.12l-.11-.08a5.54,5.54,0,0,0-.65-.29,3.7,3.7,0,0,1-.63-.43l-.2-.12-.2-.09a2.71,2.71,0,0,0-.61-.35c-4.59-2-9.2-4-13.93-5.56l-.21-.07-1.29-.42q-5.13-1.73-10.36-3.08a75.65,75.65,0,0,0-11.77-3.44,1.19,1.19,0,0,0-.56-.15l0,0a3.43,3.43,0,0,0-.77-.12l-.73,0a9,9,0,0,1-1.44-.39,1.54,1.54,0,0,0-1.15.15l-.13.1a6.84,6.84,0,0,0-1.63,0c-.27,0-.52.08-.78.12h-.25c-.75,0-1.5-.06-2.25-.14l-.31,0h-.08l-.46-.09a8.54,8.54,0,0,1-1.22-.36,1.48,1.48,0,0,0-1.58.53,47,47,0,0,1-9-2c-.37-.21-.75-.42-1.11-.65a17.39,17.39,0,0,1-2.2-.31c-2.26-.08-4.52-.1-6.77-.12a1,1,0,0,0-.35.07l-2.45,0a1.34,1.34,0,0,0-.28,0,84,84,0,0,0-8.82.55h-.37a8.12,8.12,0,0,0-2,.13,12,12,0,0,0-2.41.28c-2.16.16-4.32.37-6.45.71-.84.05-1.68.15-2.52.23s-1.83.18-2.74.31a9,9,0,0,0-1,.21A40.89,40.89,0,0,0,174.56,361a2.22,2.22,0,0,1-.92.36l-.12,0-.19.07a5.71,5.71,0,0,1-.67.3,1.65,1.65,0,0,1-.42.16c-1.47.29-1.22-2.13-1.45-2.95a.71.71,0,0,1,0-.2h0a.54.54,0,0,1,.53-.51h.2l.2,0a7.6,7.6,0,0,1,1.38-.4l.44-.1s0-.05,0-.08h.21a3,3,0,0,1,.77-.18l.24-.06a1,1,0,0,1,.46-.12l.09-.06a2,2,0,0,1,.58-.15c.47-.09.94-.21,1.41-.3l.53-.11A154.92,154.92,0,0,1,213,352c-.09-.11-.17-.23-.25-.34a1.81,1.81,0,0,0,.23,0,1.5,1.5,0,0,0,0-3,1.36,1.36,0,0,0-1.16.57,2,2,0,0,1,0-.24c-4,.09-7.92.3-11.86.68a157.19,157.19,0,0,0-26.52,4.92,1.62,1.62,0,0,0-.4.18,4,4,0,0,0-1.64.4c-.51.21-1,.44-1.49.69h-.06l-.2.1-.28.07-.13,0h0l-.43.25a.77.77,0,0,0-.13.49,19,19,0,0,0,.41,2.6.24.24,0,0,0,0,.08l0,.1c-.19,1.82.41,3.55.65,5.33a18.34,18.34,0,0,0,.42,3v0a61.84,61.84,0,0,0,1.23,6.32,1.32,1.32,0,0,0,.54-.07c14.68-5,30.25-6.35,45.68-5.73,7.79.31,15.55,1.09,23.26,2.14,7.3,1,14.64,2,21.85,3.59a55.7,55.7,0,0,1,16.82,6.09c.49.18,1,.45,1.42.67a21,21,0,0,1,2.22,1.25,17.43,17.43,0,0,1,2.24,1.44,1.59,1.59,0,0,0,.4-.18,6.51,6.51,0,0,1,.52-1.18,4,4,0,0,1,.42-.92c.28-.51.47-1.07.72-1.59.59-1.21,1.26-2.38,1.92-3.55.32-.58.67-1.15,1-1.74s.47-1,.76-1.55.61-.8.86-1.24a3.46,3.46,0,0,1,.44-.62.67.67,0,0,0,0-.24A1.42,1.42,0,0,0,292.11,368.51Z" transform="translate(-51.81 -266.21)"/><path class="cls-1" d="M263.88,336.24h0l.05.08h0Z" transform="translate(-51.81 -266.21)"/><path class="cls-1" d="M268.46,335.61a9.08,9.08,0,0,0-1.47-.18h-.18a2.32,2.32,0,0,0-.3-.66,5.72,5.72,0,0,0-.37-.49l0,0-.34-.59a3.74,3.74,0,0,0-1.25-1.4,6.52,6.52,0,0,0-1.39-.65,1.4,1.4,0,0,0-1-.36,1.51,1.51,0,0,0-.39,2.95,2,2,0,0,0,.5.28l.22.08c.11.07.24.12.35.18l.14.09,0,0h0c-.06-.05.07.1.1.15a7.84,7.84,0,0,0,.49.85l.28.36h0l0,0v0h0l0,.05v0c0,.06,0,.06,0-.06a3.73,3.73,0,0,0,.05.74,2.22,2.22,0,0,0,.54,1,1.92,1.92,0,0,0,1.36.54,3.79,3.79,0,0,0,.83-.14,3.76,3.76,0,0,1,.75,0l.21,0a1.59,1.59,0,0,0,1.15-.15,1.5,1.5,0,0,0-.36-2.74Z" transform="translate(-51.81 -266.21)"/><path class="cls-4" d="M259.64,330.77a3.22,3.22,0,0,0,.74.31c.33.1.67.17,1,.29a2.07,2.07,0,0,1,.46.2l.14.11a1.05,1.05,0,0,0,.43.07" transform="translate(-51.81 -266.21)"/><path class="cls-4" d="M261.08,331.54a7.9,7.9,0,0,0,.83,1.16" transform="translate(-51.81 -266.21)"/><path class="cls-4" d="M253.8,356.22a3.5,3.5,0,0,1,.65.08l1.09.22" transform="translate(-51.81 -266.21)"/><path class="cls-4" d="M212.62,351.55a5.53,5.53,0,0,0,2-.11l.68-.12" transform="translate(-51.81 -266.21)"/><path class="cls-4" d="M213.87,350.47a4.21,4.21,0,0,0,1.22.15" transform="translate(-51.81 -266.21)"/><path class="cls-4" d="M215.31,351.46a2.91,2.91,0,0,0,.59,0" transform="translate(-51.81 -266.21)"/><path class="cls-3" d="M195.87,302.63c-14.45-2.26-21.37-16.54,9.47-28.17,19.85-6.28,31.92-1.4,28.48,7.68" transform="translate(-51.81 -266.21)"/><path class="cls-3" d="M233.45,283.05c1.67-3.84,1.58-8.23-2.31-11.26-13.73-10.73-52.07.76-49.22,22,1.37,10.3,17.7,10.2,29.14,6.37,7.25-2.42,14.19-6.76,18.26-11.09a22.13,22.13,0,0,0,3.81-5.33A3.08,3.08,0,0,1,233.45,283.05Z" transform="translate(-51.81 -266.21)"/></svg>